<svg xmlns="http://www.w3.org/2000/svg" fill="none" viewBox="0 0 23 32">
    <symbol id="horse">
        <path fill="#595653" d="M21.478 29.944h-.563l-.003-.018-.016-.069-.031-.134-.015-.063a9.523 9.523 0 0 0-.046-.177l-.005-.016a8.111 8.111 0 0 0-.054-.19l-.02-.062-.039-.129-.023-.07a6.495 6.495 0 0 0-.042-.124l-.023-.065a7.031 7.031 0 0 0-.057-.154l-.012-.032a7.571 7.571 0 0 0-.099-.244l-.05-.117-.032-.072a7.38 7.38 0 0 0-.083-.183c-.02-.043-.04-.085-.062-.128-.009-.016-.016-.032-.024-.049a6.16 6.16 0 0 0-.086-.166l-.04-.07-.056-.101-.043-.075a9.185 9.185 0 0 0-.1-.17c-.02-.033-.039-.067-.061-.1l-.057-.092-.082-.125a5.298 5.298 0 0 0-.052-.078l-.056-.083c-.02-.027-.04-.055-.057-.082a.983.983 0 0 0-.055-.074l-.06-.083-.055-.075c-.04-.05-.076-.1-.115-.15l-.054-.068-.07-.085-.052-.063c-.024-.03-.048-.058-.073-.086l-.051-.06-.077-.086-.045-.05a9.388 9.388 0 0 0-.29-.306l-.044-.044-.09-.088-.045-.043a6.692 6.692 0 0 0-.095-.09l-.033-.03a8.173 8.173 0 0 0-.343-.3l-.032-.026a7.135 7.135 0 0 0-.11-.088l-.036-.03c-.04-.03-.075-.06-.113-.089l-.02-.014a10.344 10.344 0 0 0-.394-.288l-.019-.013a9.083 9.083 0 0 0-.127-.085l-.028-.018c-.044-.03-.087-.057-.131-.085l-.008-.005a9.483 9.483 0 0 0-.444-.265l-.006-.003c-.047-.027-.095-.053-.143-.078l-.02-.012a9.62 9.62 0 0 0-.784-.374l-.017-.007a9.163 9.163 0 0 0-.213-.087h1.413c.23 0 .416-.251.416-.562 0-.31-.186-.56-.416-.56h-.421l.086-.215c.398-.235 1.098-.736 1.793-1.656l.005-.007c.053-.069.105-.14.155-.213l.01-.015a6.3 6.3 0 0 0 .152-.225l.013-.02.071-.113s0-.002.003-.004l.072-.119.016-.026.061-.105.012-.02.07-.123.015-.028a6.403 6.403 0 0 0 .139-.263l.015-.03.053-.107.018-.038.064-.134.013-.029.051-.112.02-.045a6.476 6.476 0 0 0 .121-.291l.02-.05.048-.124.012-.031.055-.15.019-.053.042-.12.015-.045a11.15 11.15 0 0 0 .068-.212l.04-.123c.005-.018.01-.038.016-.054l.047-.165.015-.054.035-.13.016-.06c.015-.057.03-.115.043-.174l.012-.049.033-.141.014-.064a12.913 12.913 0 0 0 .08-.383l.012-.066.03-.168.006-.036.032-.199a16.55 16.55 0 0 0 .034-.232l.008-.05.027-.21.008-.066a8.25 8.25 0 0 0 .026-.228l.021-.22c0-.02.004-.04.005-.062l.015-.178c0-.022.003-.044.005-.066l.015-.23c0-.018 0-.038.003-.054l.01-.194c0-.024 0-.047.003-.07l.009-.244v-.035l.005-.22V12.618c0-.075-.004-.153-.006-.231v-.043a33.15 33.15 0 0 0-.01-.271L20.102 12a17.182 17.182 0 0 0-.012-.232c0-.019 0-.037-.003-.058a26.905 26.905 0 0 0-.018-.283l-.005-.066-.018-.24c0-.023-.004-.046-.006-.069a27.538 27.538 0 0 0-.026-.295c0-.018-.004-.037-.006-.056l-.026-.255a23.313 23.313 0 0 0-.044-.385c0-.012-.004-.025-.006-.037a22.797 22.797 0 0 0-.036-.28l-.011-.083-.046-.322C18.26-1.316 7.071.414 7.071.414l.358 2.29L.662 9.48l.296 2.617 2.563 1.497c.115-.276.261-.538.438-.782C5.613 11.004 8.822 9.584 9.74 9.29c.184-.059.289-.088.289-.088-4.394 5.391-3.894 11.568-3.699 13.04-.203.037-.36.27-.36.555 0 .31.186.561.416.561h1.413c-2.35.933-4.215 2.709-5.188 4.94a2.625 2.625 0 0 0-.31.836l-.02.065-.038.121-.02.075a4.219 4.219 0 0 0-.055.2c-.01.037-.02.074-.028.111-.01.038-.018.075-.027.115l-.029.13h-.563a.853.853 0 0 0-.587.22.77.77 0 0 0-.181.252.737.737 0 0 0 .18.85.821.821 0 0 0 .588.22h19.965a.853.853 0 0 0 .586-.22.772.772 0 0 0 .181-.252.737.737 0 0 0-.18-.85.853.853 0 0 0-.587-.22l-.008-.007Z"/>
    </symbol>
</svg>