<svg width="339" height="341" fill="none" xmlns="http://www.w3.org/2000/svg">
    <symbol id="svg-pic-line-2">
        <path fill-rule="evenodd" clip-rule="evenodd" d="m.367 154.5 15.75-40.225 34.751-27.526L77.114 74.5l28.338-4.964 13.434-21.35 13.716-28.135L174.25.117l38.389 8.969 35.946 39.118v27.911l-17.284 16.945-4.49 20.375-10.085 4.88 7.86 11.519L240 148.966l-4.985 20.362L253.218 189l3.732 27.151h21.434l4.205 5.661 1.256-4.884 24.71-5.917 13.312-16.042H339l-4.367 145.45-293.228-9.911v-19.121L.367 300.466V154.5Zm45.672 153.326v18.202L330 335.626V199.603h-5.957l-12.908 15.555-23.498 5.626-2.978 11.584-8.605-11.584h-22.836l-5.626-25.815-17.21-24.159v-21.844l-9.267-15.886-10.26-6.95 1.655-10.921 10.26-4.965 4.302-19.526 16.879-16.548V50.01l-33.758-36.736-35.943-4.187-38.191 14.447-12.907 26.476-8.936 24.16h-7.943l-13.57 4.964H78.143L53.32 90.718l-33.427 26.476L5 150.952v145.952l41.039 10.922Z" fill="#fff"/>
    </symbol>
</svg>