<svg width="277" height="163" fill="none" xmlns="http://www.w3.org/2000/svg">
    <symbol id='svg-pic-line'>
        <path fill-rule="evenodd" clip-rule="evenodd" d="M276.848 65.986 218.2 130.63l-15.499-4.483-20.854.372-33.413-11.49-15.112-1.129-.142 2.69-9.822 11.75-16.316-5.395-29.663 8.949-10.84-6.467-4.433 1.15-3.371-1.559-4.501 5.385-4.077 5.705 1.292 6.813-5.011 4.221-1.515 6.169-6.794 5.097-5.122 4.248-7.57-.67-11.343-9.483-7.408-8.187-6.34-11.871-.298-7.13 6.717-5.684 6.838-4.305 6.66-3.828 6.297-.794 15.39-4.095.655-.549-.82-1.882 1.432-8.575 6.749.208.398-.734-10.082-8.428 14.296-22.32L87.3 24.335 156.525.288l35.337 26.875 54.909 31.927 30.077 6.895Zm-10.115 3.176-21.951-5.032-55.841-32.469-33.363-24.068-32.779 13.266-34.536 11.526-29.357 35.121-11.568 18.06 9.826 8.214-4.065 7.488-5.369-.165-.4 2.392 1.787 4.1-4.255 3.564-14.535 6.872-4.492-1.835-2.813.354-2.621 3.136-4.88.763-5.583 3.515-4.428 3.748.138 3.288 5.453 10.212 6.715 7.422 9.768 8.165 3.7.328 3.526-2.924 5.367-4.027 1.474-6.005 3.951-3.328-1.134-5.986 5.525-7.733 7.264-8.69 5.359 2.478 4.745-1.231 10.733 6.403 29.022-8.755 14.467 4.783 6.342-7.587.336-6.373 21.261 1.588 33.174 11.408 20.718-.37 13.064 3.778 50.255-55.394Z" fill="url(#a)"/>
        <defs>
            <linearGradient id="a" x1="122.223" y1="160.951" x2="69.918" y2=".604" gradientUnits="userSpaceOnUse"><stop stop-color="#E8DCD1"/><stop offset="1" stop-color="#fff"/></linearGradient>
        </defs>
    </symbol>
</svg>