<svg width="530" height="344" fill="none" xmlns="http://www.w3.org/2000/svg">
    <symbol id="svg-pic-2">
        <path d="m329.784 307-68.422-53.469-140.371 83.624 72.071-83.624L61.5 344 90 297.5 12 309l81-69-92.495-5.008L140.69 184.21 14.81 152.851l147.443-4.401-93.528-42.913 71.965 6.382L3.134 5.98l182.388 81.525L156.032.186l51.724 59.417 20.734-31.96 27.658 49.835 18.104-35.343 9.361 40.138 60.457-35.248-21.656 64.894 31.825-19.183-24.455 35.313 199.711-2.18-199.711 39.001 45.822 11.108-36.797 2.777 144.411 51.377L348 220.5l60.084 51.736-85.67-21.736 7.37 56.5Z" fill="#FBCE51"/>
    </symmbol>
</svg>