<svg class="words-on-round" xmlns="http://www.w3.org/2000/svg" width="660px" height="660px" fill="none" viewBox="46.0 20.0 660 660">
    <symbol id="words" viewBox="46.0 20.0 660 660">
        <g style="mix-blend-mode:overlay"><path d="m530.792 642.811-.392-.818 1.497-1.025-4.179-8.352-.333 2.763-1.905 8.249.183.457 1.56-.499.392.818-4.598 2.333-.392-.818 1.256-.886-5.146-10.444-1.465.524-.392-.818 4.693-2.307.392.818-1.351.86 4.249 8.472.282-2.572 1.955-8.44-.347-.602-1.681.568-.392-.818 4.693-2.308.392.818-1.351.861 5.146 10.444 1.44-.429.391.818-4.597 2.333ZM519.416 648.013c-.507.373-.869.582-1.23.79-.362.209-.723.418-1.059.532-1.395.644-2.594.934-3.569.775-.976-.16-1.66-.649-2.096-1.682-.367-.913-.448-1.75-.124-2.58.324-.83.908-1.488 1.657-2.001-1.034.437-1.965.492-2.821.263-.83-.324-1.393-.882-1.785-1.7-.575-1.275-.606-2.302-.135-3.296.47-.994 1.51-1.836 3.146-2.62.698-.322 1.37-.55 1.896-.612a6.782 6.782 0 0 1 1.388-.24c.311-.018.526-.062.621-.037l.998 3.119-.818.392-1.493-2.03c-.691-.083-1.458.119-2.492.555-.792.297-1.23.791-1.409 1.456-.178.665-.071 1.407.296 2.32.322.698.79 1.231 1.43 1.504.64.273 1.477.192 2.51-.244l1.154-.506.462.939-1.034.436c-.456.183-.843.487-1.256.885-.317.425-.54.874-.667 1.349-.032.501.005 1.122.258 1.699.297.793.791 1.231 1.361 1.383.57.153 1.217.021 2.009-.276.482-.278.939-.461 1.231-.791.292-.329.463-.589.514-.779l-.353-1.724 1.059-.531 1.341 2.6c-.121.07-.482.278-.99.652ZM504.193 653.508l1.509-.308.366.913-2.377.89c-.362.209-.913.367-1.491.62a11.04 11.04 0 0 0-1.179.6c-1.585.594-2.853.764-3.708.535-.855-.23-1.514-.813-1.855-1.822-.297-.792-.378-1.629-.079-2.364.203-.76.787-1.418 1.51-1.836-1.128.411-2.086.562-2.915.238-.83-.325-1.489-.908-1.83-1.916-.505-1.154-.415-2.251.175-3.315.591-1.064 1.752-1.975 3.673-2.683a6.712 6.712 0 0 1 1.224-.385c.887-.271 1.464-.524 1.68-.568l2.282-.916.272.887-1.421.74 4.164 10.69Zm-7.904-9.655c-1.154.506-1.903 1.018-2.296 1.727-.394.71-.287 1.451-.016 2.339.367.913.835 1.446 1.475 1.719.64.274 1.476.192 2.51-.244 1.154-.506 1.921-.707 2.282-.916l-1.964-5.212c-.406-.007-.983.246-1.991.587Zm3.263 6.069-.913.367c-.793.296-1.326.765-1.599 1.405-.273.639-.261 1.355.131 2.173.296.793.765 1.326 1.31 1.574.544.248 1.381.166 2.414-.27.457-.183.819-.392 1.275-.575l.362-.209-1.852-4.876c-.241.14-.577.253-1.128.411ZM489.355 660.228l-1.921.707-8.41-10.809-1.173.195-.271-.888 4.704-1.591.272.888-1.395.644 1.702 2.392 5.16-1.775-.047-2.865-1.604.284-.271-.888 4.248-1.408.271.887-1.059.531-.206 13.696Zm-1.987-2.468.955 1.376-.137-1.768-.158-6.255-4.488 1.547 3.828 5.1ZM474.739 650.913c1.14.306 2.014.845 2.786 1.765.772.92 1.398 2.005 1.733 3.418.359 1.319.434 2.561.198 3.822a5.47 5.47 0 0 1-1.626 3.028c-.825.797-1.815 1.449-3.038 1.834-.888.271-2.06.466-3.398.515l-.621.038-.757-3.259 1.224-.385 1.157 2.144c.19.051.57.152.976.159.406.007.957-.151 1.604-.283a3.472 3.472 0 0 0 1.858-1.234c.464-.588.788-1.418.827-2.325a10.261 10.261 0 0 0-.377-3.156c-.315-1.103-.751-2.137-1.359-2.911-.607-.774-1.24-1.453-1.975-1.751-.735-.299-1.615-.433-2.503-.162-.647.133-1.129.411-1.37.55-.241.139-.533.468-.704.728l-.224 1.977-1.173.195-.314-2.63c.216-.044.577-.253 1.059-.531a4.66 4.66 0 0 1 1.205-.696c.362-.209.913-.367 1.465-.524 1.059-.531 2.206-.632 3.347-.326ZM460.652 665.472c-.375 1.02-.94 1.989-1.619 2.622-.8.703-1.643 1.19-2.6 1.341-1.198.29-2.295.2-3.22-.15-.925-.35-1.773-.984-2.45-1.879a7.474 7.474 0 0 1-1.447-3.341c-.309-1.509-.358-2.846-.148-4.012.236-1.261.802-2.23 1.531-3.053.73-.823 1.669-1.285 2.772-1.6 1.198-.29 2.32-.295 3.34.08s1.773.984 2.475 1.784a7.464 7.464 0 0 1 1.448 3.341l2.922-.643-1.223-5.318-1.578.188-.177-.862 5.009-1.205.176.862-1.465.525 2.674 11.309 1.458-.119.176.863-4.888 1.134-.176-.862 1.465-.524-1.135-4.888-2.948.738c.024 1.433-.092 2.624-.372 3.669Zm-2.067.873c.426-1.21.428-2.738-.039-4.798-.448-1.75-1.092-3.145-1.985-3.995-.893-.85-1.913-1.226-3.206-.961-1.198.29-1.902 1.018-2.303 2.133-.4 1.115-.333 2.763.134 4.823.448 1.75.997 3.119 1.89 3.97.867.945 1.913 1.225 3.016.91 1.267-.17 2.067-.873 2.493-2.082ZM439.377 664.661c-.563-.559-1.386-1.288-2.253-2.234-.633-.679-1.006-1.186-1.335-1.478-.33-.292-.589-.463-.779-.514l-.691-.083-.177-.863 2.251-.415c.31-.019.665.178 1.064.591a21.511 21.511 0 0 1 1.709 1.985 26.48 26.48 0 0 0 2.038 2.278c.468.533.918.755 1.349.667l1.172-.195-.938-5.242-1.647.067-.177-.862 5.027-.894.151.957-1.439.43 2.027 11.441 1.527.002.151.957-4.906.825-.1-1.147 1.464-.525-.912-5.337-1.604.283-2.821 5.967 1.553-.093.151.957-4.501.831-.151-.957 1.439-.429 3.062-6.106c-.5-.032-1.115-.401-1.704-.864ZM431.023 660.487c.995.47 1.723 1.175 2.254 2.234.556.964.941 2.187 1.181 3.576a7.597 7.597 0 0 1-.328 3.884 6.68 6.68 0 0 1-1.861 2.761c-.894.677-1.832 1.139-3.1 1.308-1.914.302-3.53-.131-4.657-1.247-1.127-1.117-1.936-2.658-2.161-4.858-.214-1.483-.073-2.769.327-3.884.426-1.21 1.061-2.059 1.886-2.856.895-.677 1.928-1.113 3.101-1.308 1.267-.17 2.364-.08 3.358.39Zm.773 10.8c.521-1.184.713-2.661.462-4.765-.207-1.889-.756-3.258-1.598-4.299-.842-1.04-1.862-1.415-3.034-1.22-1.173.195-2.042.777-2.563 1.961-.521 1.185-.739 2.756-.462 4.766.207 1.889.757 3.258 1.624 4.204.772.919 1.766 1.39 3.034 1.22 1.122-.005 2.016-.682 2.537-1.867ZM419.65 674.043l1.502.096.056.932-2.51.244c-.406-.007-.957.151-1.578.189-.647.132-1.053.125-1.268.169-1.673.163-2.96.022-3.739-.492-.779-.515-1.196-1.238-1.322-2.29a3.902 3.902 0 0 1 .517-2.306c.368-.614 1.116-1.127 2.004-1.398-1.147.1-2.123-.06-2.902-.574-.779-.514-1.171-1.332-1.227-2.264-.074-1.242.206-2.288 1.056-3.18.85-.893 2.22-1.443 4.299-1.599.431-.088.836-.081 1.337-.049.932-.056 1.553-.093 1.743-.042l2.51-.244.056.931-1.509.309.975 11.568Zm-4.987-11.42c-1.242.074-2.155.441-2.618 1.029-.559.564-.762 1.324-.611 2.281.055.932.378 1.629.897 1.972.519.343 1.375.572 2.427.447 1.242-.075 2.079-.156 2.415-.27l-.456-5.52c-.38-.102-1.002-.065-2.054.061Zm1.558 6.732-1.053.125c-.836.082-1.534.404-1.877.923-.342.52-.546 1.28-.465 2.117.082.836.309 1.508.828 1.851.52.343 1.28.547 2.332.421.431-.088.932-.056 1.388-.239l.431-.088-.437-5.21c-.311.019-.621.037-1.147.1ZM390.297 676.771l-.056-.932 1.604-.283-.354-11.605-1.787-.173-.056-.932 5.229-.127.056.932-1.578.188.328 11.7 5.945-.139-.328-11.7-1.692-.147-.056-.932 5.228-.127.056.932-1.483.214.354 11.604 1.571.217.056.932-13.037.378ZM385.889 663.57c.849.635 1.551 1.435 1.962 2.563.436 1.034.606 2.301.629 3.734-.071 1.407-.307 2.668-.898 3.732-.59 1.064-1.32 1.887-2.284 2.443a6.459 6.459 0 0 1-3.189.877c-1.933-.008-3.377-.701-4.384-1.887-.98-1.282-1.454-2.936-1.464-5.18-.023-1.432.333-2.763.924-3.827s1.346-1.982 2.31-2.538a6.282 6.282 0 0 1 3.284-.852c1.217.021 2.262.301 3.11.935Zm-.754 10.799c.686-1.039 1.093-2.559 1.127-4.587-.017-1.838-.325-3.347-.951-4.431-.627-1.085-1.596-1.65-2.812-1.671-1.217-.02-2.181.537-2.867 1.575-.686 1.039-1.118 2.654-1.153 4.682-.008 1.933.231 3.321.952 4.431.626 1.085 1.595 1.65 2.812 1.67 1.173-.195 2.111-.656 2.892-1.669ZM370.383 667.462c.363-1.736.789-2.946 1.424-3.794.318-.425.609-.754.971-.962a2.349 2.349 0 0 1 1.198-.291c.596.058 1.001.065 1.286.141l-.001 1.528c-.285-.077-.786-.109-1.382-.167-.19-.051-.405-.007-.646.133-.241.139-.387.303-.533.468-1.098 1.437-1.698 4.434-1.988 8.94l-.097 1.502 2.141.37-.039.906-10.823-.659.039-.906 1.768-.138.768-11.609-1.856-.294.039-.906 5.697.406-.039.906-1.959.086-.768 11.61 3.815.207.148-1.692c.275-2.167.499-4.144.837-5.785ZM358.505 674.16l1.52.407-.134.881-9.505-1.019.073-2.934 1.096.09.328 1.819 4.619.626.589-5.24-3.073-.314-.407 1.52-1.002-.064.43-4.265 1.001.065.068 1.647 3.048.41.571-5.551-5.292-.4-1.207 2.223-1.089-.495.866-3.231 10.291 1.127-.135.881-1.527-.002-1.129 11.819ZM343.068 672.468l3.169.339 1.208-3.75 1.166.21-1.013 4.924-11.545-1.77.513-4.955 1.165.21.053 3.987 3.212.555 1.7-11.665-2.591-.593.134-.881 7.046 1.073-.134.881-2.408-.136-1.675 11.571ZM329.738 663.294l.881.134c.336-.113.749-.512 1.092-1.031.342-.52.926-1.178 1.441-1.957.514-.779.977-1.368 1.295-1.792.317-.424.558-.563.748-.512l2.522.472-.134.88-.742.107c-.216.044-.431.088-.723.418-.266.234-.704.728-1.168 1.316-.609.754-1.072 1.343-1.485 1.742-.438.493-.799.702-1.256.885.805.42 1.368.978 1.69 1.675.323.698.404 1.535.245 2.51-.287 1.451-.948 2.395-1.861 2.761-1.008.341-2.25.416-3.891.078l-1.33-.356-1.331-.357-2.617-.497.134-.881 1.597.122 2.245-11.417-1.685-.554.134-.881 5.424 1.046-.135.881-1.787-.173-.893 4.853 1.59.528Zm-2.542 6.449 1.425.382c.976.159 1.692.148 2.295-.2.602-.348.97-.962 1.156-2.033.159-.976.078-1.813-.365-2.441-.443-.628-1.057-.996-2.008-1.251-.975-.159-1.641-.337-1.951-.319l-1.097 5.614.545.248ZM316.615 667.417l3.187.65 1.494-3.674 1.235.331-1.489 4.796-11.29-2.72.918-4.949 1.141.306-.354 3.98 3.137.84 2.675-11.506-2.54-.783.229-.855 6.988 1.669-.229.855-2.452-.351-2.65 11.411ZM304.611 651.774c.798.825 1.234 1.858 1.429 3.031.195 1.173.054 2.459-.328 3.885-.357 1.33-1.068 2.464-1.893 3.261-.85.893-1.909 1.424-3.012 1.739-1.198.291-2.295.201-3.53-.13-.95-.255-1.945-.725-3.199-1.367l-.545-.248 1.151-3.154 1.236.331-.231 2.382c.139.241.398.413.753.61.355.196.9.444 1.47.597.76.204 1.476.192 2.243-.01a3.877 3.877 0 0 0 1.935-1.519c.609-.753 1.08-1.748 1.385-2.888.306-1.14.491-2.211.46-3.238-.03-1.027-.302-1.914-.719-2.637-.417-.723-1.101-1.212-2.052-1.467-.665-.178-1.14-.305-1.546-.312a1.901 1.901 0 0 0-.982.246l-1.219 1.507-1.089-.496 1.162-2.438c.285.076.691.083 1.192.115.5.032.906.039 1.311.046.406.007.976.16 1.546.312 1.236.331 2.3.922 3.072 1.842ZM286.172 659.769l.324-.83 1.831.389 3.084-8.85-2.175 1.658-7.212 4.485-.127.475 1.539.718-.324.829-4.84-1.704.324-.83 1.451.287 3.765-11.01-1.444-.692.324-.83 4.935 1.729-.324.83-1.641-.338-3.11 8.945 2.056-1.588 7.426-4.529.178-.665-1.634-.743.325-.83 4.934 1.729-.324.83-1.546-.312-3.765 11.01 1.349.667-.324.83-5.055-1.66ZM267.078 652.717l1.654-4.649 1.21.426-.898 3.731 3.743 1.615 4.361-10.953-2.983-1.41.324-.83 6.829 2.644-.325.83-1.995-.534-4.215 10.787 1.773.985-.324.83-9.154-3.472ZM264.54 650.408l1.203.831-.324.83-4.643-2.059.324-.83 1.52.408 2.034-4.548-6.018-2.631-2.033 4.548 1.298.857-.324.83-4.548-2.034.324-.829 1.426.382 4.689-10.661-1.323-.762.324-.83 4.548 2.034-.324.829-1.495-.502-2.256 4.998 6.017 2.631 2.256-4.998-1.418-.788.324-.83 4.738 2.085-.324.83-1.4-.477-4.595 10.686ZM246.828 643.523l-1.799-.889 1.709-13.599-.944-.66.42-.805 4.402 2.199-.42.804-1.495-.503-.453 2.833 4.852 2.42 1.992-2.114-1.393-.883.419-.804 3.953 1.976-.42.804-1.115-.401-9.708 9.622Zm.245-3.194-.338 1.641 1.168-1.317 4.372-4.532-4.212-2.147-.99 6.355ZM239.518 629.749c1.073-1.342 2.044-2.305 2.913-2.887a3.766 3.766 0 0 1 1.249-.48c.406.007.786.109 1.235.331.545.248.874.54 1.134.711l-.572 1.375c-.26-.171-.614-.368-1.229-.737a.623.623 0 0 0-.57-.152c-.215.044-.431.088-.672.227-1.541.809-3.42 3.26-5.706 7.231l-.762 1.323 1.792 1.295-.42.805-9.386-5.265.42-.805 1.659.649 5.685-10.191-1.558-1.028.419-.805 5.061 2.782-.42.805-1.729-.769-5.659 10.095 3.287 1.798.813-1.514c.89-1.799 1.944-3.452 3.016-4.794ZM211.47 623.048l.514-.779 1.634.744 6.204-9.848-1.342-1.072.514-.779 4.604 2.965-.514.779-1.54-.718-6.203 9.847 1.342 1.073-.514.779-4.699-2.991Zm12.813 1.6c-1.299-.857-2.071-1.777-2.412-2.785-.341-1.008-.156-2.079.555-3.213.737-1.228 1.727-1.88 2.899-2.075 1.173-.195 2.408.136 3.732.898.165.146.355.197.519.343.165.146.329.292.52.343.588.463 1.108.806 1.532 1.123l2.172 1.397-.514.779-1.444-.692-6.204 9.847 1.152 1.022-.514.779-4.534-2.845.514-.779 1.729.769 2.305-3.66-2.007-1.251Zm5.342-5.495c-.164-.146-.424-.317-.874-.54-.874-.539-1.729-.768-2.496-.567-.767.202-1.42.74-2.081 1.684-.539.874-.743 1.634-.541 2.401.202.767.74 1.421 1.614 1.96l1.652 1.054 3.359-5.313c-.208-.361-.373-.507-.633-.679ZM205.032 617.045l1.031 1.091-.514.779-4.078-3.028.515-.779 1.418.788 3.028-4.078-5.281-3.859-3.028 4.077 1.032 1.092-.514.779-3.983-3.003.514-.779 1.349.667 6.888-9.358-1.057-.997.514-.779 4.078 3.028-.514.779-1.324-.762-3.199 4.337 5.28 3.86 3.2-4.337-1.222-1.143.514-.778 4.173 3.053-.514.779-1.324-.762-6.982 9.333ZM189.194 606.588l-1.577-1.339 4.585-12.93-.772-.92.584-.658 3.862 3.072-.609.753-1.298-.857-1.024 2.68 4.261 3.484 2.461-1.581-1.127-1.117.584-.658 3.438 2.754-.583.659-1.064-.591-11.721 7.249Zm1.005-2.99-.623 1.564 1.402-1.05 5.213-3.492-3.672-3.021-2.32 5.999ZM178.091 595.566l1.31 1.574-.584.658-3.665-3.427 3.761-7.955 1.181-2.128-2.004 1.398-7.591 4.383-3.596-3.306.584-.659 1.697 1.27 6.817-9.479-1.075-1.307.584-.659 3.899 3.693-.584.659-1.368-.978-5.052 6.693-2.197 2.875 2.41-1.392 8.987-5.027.892.85-3.844 8.646-1.608 3.338 2.69-2.437 6.3-5.645-1.265-1.358.583-.658 3.596 3.306-.584.658-1.272-.952-9.002 7.366Z" fill="currentColor" /><path d="m161.763 581.617-1.431-1.504 6.124-12.212-.651-.989.679-.633 3.424 3.566-.679.633-1.273-.952-1.403 2.577 3.848 3.884 2.6-1.341-.981-1.281.679-.633 3.121 3.179-.679.633-.943-.661-12.435 5.734Zm1.385-2.889-.813 1.514 1.541-.809 5.656-2.864-3.355-3.446-3.029 5.605ZM155.556 573.231l.79 1.23-.679.633-1.639-1.865c-.329-.292-.633-.679-.962-.971-.494-.438-.962-.971-1.361-1.383-1.171-1.332-1.771-2.512-1.802-3.539-.03-1.026.509-1.9 1.48-2.863.774-.607 1.523-1.119 2.359-1.201.862-.176 1.743-.042 2.573.282.83.324 1.583.934 2.286 1.733l.702.799c.234.267.374.508.469.533l3.077-2.74-1.589-2.056.679-.632 4.076 4.555-.679.633-1.152-1.022-8.628 7.874Zm2.34-7.216c-.633-.679-1.437-1.098-2.223-1.207-.785-.108-1.819.328-2.79 1.29-.799.702-1.193 1.412-1.181 2.128.012.716.404 1.534 1.106 2.333.234.267.564.559.893.851.164.146.329.292.399.412l4.942-4.38c-.234-.266-.608-.774-1.146-1.427ZM155.856 555.385c.195 1.172.01 2.243-.581 3.307-.495 1.09-1.371 2.077-2.437 3.014-1.066.937-2.22 1.442-3.393 1.637-1.172.195-2.389.175-3.479-.321-1.115-.4-2.058-1.061-2.9-2.101a18.079 18.079 0 0 1-1.859-2.943l-.253-.577 2.683-2.031.772.92-1.51 1.836c.044.216.062.526.246.983.208.361.487.843.86 1.351a3.545 3.545 0 0 0 1.912 1.225c.761.204 1.597.122 2.485-.149.887-.272 1.851-.828 2.771-1.6.92-.772 1.625-1.5 2.164-2.374.54-.874.864-1.704.878-2.515.014-.811-.283-1.604-.796-2.352-.373-.508-.797-.825-1.127-1.117-.329-.292-.614-.369-.924-.35l-1.896.613-.652-.99 2.29-1.322c.164.146.494.438.918.756.424.317.779.514 1.108.806.329.292.633.679 1.127 1.117.962.97 1.493 2.029 1.593 3.177ZM125.381 536.83l.749-.513 1.145 1.428 7.821-5.239-2.744-.022-8.435-.834-.387.304.715 1.515-.749.513-2.815-4.319.749-.513 1.031 1.091 9.679-6.471-.739-1.421.748-.512 2.91 4.344-.748.513-1.076-1.307-7.941 5.308 2.554-.029 8.624.885.603-.348-.81-1.541.749-.512 2.91 4.344-.749.513-1.006-1.186-9.679 6.471.645 1.395-.748.513-3.006-4.37ZM118.759 526.194c-.399-.413-.703-.8-1.032-1.092-.329-.292-.443-.628-.677-.894-.766-1.326-1.176-2.454-1.207-3.481-.03-1.027.459-1.711 1.423-2.267.843-.487 1.705-.664 2.561-.434.855.229 1.539.718 2.172 1.396-.557-.964-.803-1.946-.574-2.801.23-.856.718-1.54 1.467-2.052 1.11-.721 2.282-.916 3.302-.541s2.008 1.251 3.007 2.843c.348.602.696 1.205.854 1.756.158.552.341 1.008.455 1.344.113.336.157.552.132.647l-2.911 1.359-.487-.843 1.77-1.665c-.011-.716-.308-1.509-.89-2.378-.418-.723-1.007-1.186-1.602-1.244-.596-.058-1.458.119-2.301.606-.628.443-1.066.937-1.34 1.576-.178.666-.001 1.528.581 2.397l.721 1.11-.869.582-.557-.964c-.278-.482-.607-.774-1.031-1.092-.425-.317-.9-.444-1.401-.477-.5-.032-1.052.126-1.654.474-.723.417-1.066.936-1.219 1.506-.058.596.075 1.243.492 1.966.278.482.582.869.937 1.066.329.292.614.368.83.324l1.68-.569.651.99-2.365 1.607c-.191-.051-.425-.318-.918-.755ZM111.412 511.798l.524 1.465-.818.392-1.227-2.264a13.816 13.816 0 0 0-.86-1.351 11.051 11.051 0 0 1-.721-1.11c-.81-1.541-1.1-2.739-1.061-3.646.135-.88.623-1.564 1.587-2.121.818-.392 1.585-.594 2.346-.39.785.109 1.469.598 2.007 1.251-.531-1.059-.777-2.042-.548-2.897.23-.855.718-1.539 1.657-2.001 1.084-.626 2.232-.726 3.321-.23 1.115.4 2.147 1.492 3.165 3.394.208.362.392.818.6 1.18.392.818.645 1.395.81 1.541l1.157 2.143-.818.392-.886-1.256-10.235 5.508Zm2.997-5.104-.461-.939c-.418-.723-.886-1.256-1.551-1.434-.666-.178-1.312-.046-2.13.346-.723.417-1.256.886-1.409 1.456-.153.57.049 1.337.511 2.276l.695 1.205.209.361 4.623-2.428-.487-.843Zm5.652-3.986c-.626-1.085-1.259-1.764-1.994-2.062-.735-.299-1.477-.192-2.32.295-.843.487-1.376.955-1.46 1.646-.083.69.024 1.432.581 2.396.626 1.084.948 1.782 1.157 2.144l4.889-2.663c-.139-.241-.392-.818-.853-1.756ZM102.91 497.909l-.923-1.877 9.613-9.647-.315-1.103.818-.392 2.168 4.451-.818.392-.86-1.351-2.157 1.969 2.352 4.908 2.871-.453-.499-1.56.818-.392 1.89 3.97-.818.392-.651-.989-13.489 1.682Zm2.164-2.374-1.332 1.171 1.724-.353 6.244-.874-2.099-4.331-4.537 4.387ZM110.287 482.162c-.185 1.071-.68 2.161-1.41 2.984-.73.823-1.865 1.639-3.14 2.214a7.274 7.274 0 0 1-3.734.629 6.782 6.782 0 0 1-3.25-1.176c-.943-.66-1.69-1.675-2.195-2.829-.367-.913-.682-2.016-.947-3.31l-.132-.646 3.17-1.188.506 1.154-2.005 1.398c-.05.19-.057.596.03 1.027.089.431.247.983.5 1.56.322.697.765 1.325 1.474 1.719.71.394 1.47.597 2.402.542a9.256 9.256 0 0 0 3.163-.783c1.034-.436 1.997-.992 2.797-1.695.799-.702 1.288-1.386 1.517-2.241.324-.83.243-1.667-.149-2.485-.253-.577-.531-1.059-.765-1.325-.234-.267-.469-.533-.849-.635l-2.028-.034-.315-1.103 2.612-.625a8.1 8.1 0 0 0 .651.99c.304.387.633.679.842 1.04.209.362.487.844.74 1.421.505 1.154.7 2.326.515 3.397ZM94.097 469.981a6.238 6.238 0 0 1-2.819-1.265c-.754-.609-1.336-1.478-1.677-2.486-.41-1.129-.536-2.181-.255-3.226.28-1.046.724-1.945 1.524-2.648.825-.797 1.788-1.354 3.038-1.834 1.464-.524 2.732-.694 3.949-.673 1.191.115 2.306.516 3.154 1.151.849.634 1.526 1.529 1.962 2.562.411 1.129.511 2.276.326 3.347-.185 1.071-.725 1.945-1.55 2.742-.825.798-1.814 1.45-3.063 1.93l1.074 2.834 5.091-1.895-.378-1.629.887-.272 1.756 4.85-.887.272-.74-1.421-10.855 4.018.309 1.509-.888.271-1.781-4.755.887-.271.74 1.42 4.755-1.782-1.074-2.834c-1.198.29-2.44.365-3.485.085Zm-1.139-1.833c1.236.331 2.814.143 4.76-.66 1.706-.663 2.937-1.454 3.717-2.467.781-1.013.966-2.084.555-3.213-.41-1.128-1.259-1.763-2.399-2.069-1.14-.305-2.744-.022-4.665.686-1.706.663-2.936 1.454-3.692 2.372-.78 1.013-.94 1.989-.53 3.117.29 1.199 1.114 1.928 2.254 2.234ZM92.303 448.926a29.685 29.685 0 0 1 2-2.52c.583-.659 1.02-1.153 1.338-1.577.292-.329.369-.614.42-.804l-.012-.716.887-.272.726 2.232c.14.241-.083.69-.4 1.115-.343.519-.927 1.177-1.752 1.975-.875.988-1.58 1.716-2.043 2.304-.463.589-.59 1.064-.477 1.4l.315 1.104 5.11-1.585-.257-1.699.887-.271 1.541 4.894-.888.272-.645-1.395-11.107 3.44.213 1.484-.887.271-1.471-4.774.888-.271.644 1.395 5.11-1.585-.498-1.56-6.291-1.991.283 1.604-.888.271-1.357-4.438.888-.271.67 1.3 6.43 2.232c-.114-.336.16-.976.623-1.564ZM95.292 440.05a5.537 5.537 0 0 1-1.904 2.545c-.894.677-2.074 1.278-3.392 1.638-1.414.334-2.656.408-3.822.198-1.166-.211-2.135-.776-2.958-1.506-.823-.729-1.38-1.693-1.67-2.892-.517-1.87-.3-3.441.678-4.809.952-1.273 2.423-2.203 4.51-2.764 1.413-.334 2.75-.384 3.916-.173 1.166.211 2.23.801 3.053 1.531.823.73 1.38 1.694 1.67 2.892.29 1.198.295 2.32-.08 3.34Zm-10.656 2.136c1.21.426 2.763.332 4.728-.16 1.845-.422 3.17-1.187 4.021-2.08.85-.892 1.156-2.033.84-3.136-.29-1.198-1.113-1.928-2.323-2.354-1.21-.426-2.858-.358-4.823.134-1.845.422-3.17 1.187-4.02 2.08-.85.892-1.13 1.938-.84 3.136.505 1.154 1.302 1.979 2.417 2.38ZM80.442 430.469l.094 1.552-.863.177-.554-2.492c-.089-.431-.246-.982-.404-1.534-.158-.551-.341-1.008-.36-1.318-.353-1.725-.332-2.941-.008-3.771.324-.83 1.073-1.343 2.055-1.589a4.034 4.034 0 0 1 2.383.231 3.87 3.87 0 0 1 1.665 1.771c-.29-1.199-.251-2.105.168-2.909.42-.805 1.168-1.317 2.125-1.468 1.198-.29 2.364-.079 3.282.676.943.66 1.683 2.081 2.08 4.02.088.431.176.862.17 1.268.15.957.308 1.509.352 1.724l.58 2.397-.861.176-.525-1.465-11.379 2.554Zm4.245-4.058-.246-.982c-.176-.863-.524-1.465-1.139-1.833-.519-.343-1.305-.452-2.192-.18-.862.176-1.465.524-1.713 1.069-.247.544-.356 1.33-.136 2.408.089.431.177.862.36 1.318l.114.336 5.078-1.084c.05-.19-.063-.526-.126-1.052Zm6.436-2.35c-.29-1.198-.683-2.016-1.366-2.505-.59-.463-1.375-.572-2.358-.326-.957.151-1.585.594-1.833 1.139-.342.519-.382 1.425-.161 2.503.29 1.198.466 2.06.58 2.396l5.414-1.197c.076-.285-.056-.932-.276-2.01ZM73.98 401.745l.957-.151.5 1.56 11.485-1.812-.042-1.743.957-.151.843 5.217-.957.151-.404-1.534-11.486 1.812.95 5.958 11.581-1.786-.042-1.743.957-.151.748 5.192-.957.151-.43-1.44-11.486 1.812-.027 1.622-.957.151-2.19-13.115ZM86.612 395.657c-.445.9-1.27 1.697-2.233 2.254-.965.556-2.188.941-3.646 1.06-1.458.119-2.744-.022-3.859-.423-1.115-.401-2.058-1.061-2.736-1.955-.677-.895-1.113-1.928-1.213-3.075-.206-1.889.226-3.505 1.343-4.632 1.117-1.126 2.728-1.815 4.927-2.041 1.458-.118 2.744.023 3.859.423a6.514 6.514 0 0 1 2.83 1.981c.678.894 1.114 1.928 1.214 3.075.144 1.363-.041 2.434-.486 3.333Zm-10.844.558c1.159.616 2.66.713 4.74.557 1.889-.207 3.233-.662 4.273-1.504 1.015-.746 1.485-1.741 1.315-3.008-.1-1.148-.777-2.042-1.936-2.658-1.159-.616-2.756-.739-4.74-.557-1.888.207-3.328.636-4.273 1.503-1.015.747-1.39 1.766-1.22 3.034.074 1.242.751 2.137 1.84 2.633ZM80.704 380.833c1.692.148 3.048.409 3.948.854.45.222.779.514 1.013.781.208.361.322.697.41 1.128.038.621.03 1.027-.046 1.312l-1.483.214c-.019-.311-.012-.716-.024-1.433-.044-.215-.088-.431-.252-.577a4.852 4.852 0 0 0-.59-.463c-1.513-.813-4.586-1.127-9.15-.822l-1.457.119-.06 2.123-.932.056-.678-10.775.932-.056.353 1.724 11.611-.759.078-1.813.932-.056.405 5.711-.931.056-.302-1.914-11.586.664.198 3.822 1.648-.068c2.338.016 4.271.024 5.963.172ZM72.536 369.884l-.218 1.572-.931.056-.198-9.526 2.94-.332.031 1.026-1.775.543-.03 4.677 5.228-.126-.091-3.081-1.572-.217-.03-1.027 4.297-.071.03 1.027-1.604.283-.029 3.15 5.54-.145-.317-5.28-2.395-.947.306-1.14 3.238.46.184 10.337-.932.056-.188-1.579-11.484.284ZM72.32 354.344l.065 3.175 3.878.734-.02 1.217-4.981-.418.267-11.642 5.013-.083-.02 1.217-3.924.578-.15 3.22 11.763.197.212-2.693.907.039-.167 7.086-.907-.04-.149-2.484-11.787-.103ZM79.746 339.935l-.04.906c.21.362.539.654 1.153 1.022.52.343 1.229.737 2.128 1.181.9.445 1.514.813 1.963 1.036.45.222.684.488.633.678l-.161 2.504-.906-.039-.107-.742c-.044-.216-.209-.362-.443-.628-.355-.197-.779-.514-1.463-1.003-.804-.419-1.393-.883-1.912-1.226a3.154 3.154 0 0 1-1.032-1.091c-.324.83-.788 1.419-1.536 1.931-.723.418-1.49.62-2.492.555-1.501-.097-2.496-.567-3.052-1.531-.557-.964-.727-2.232-.604-3.829.007-.405.109-.785.166-1.381.058-.596.185-1.071.167-1.381l.212-2.694.906.039.094 1.553 11.61.768.267-1.761.907.039-.356 5.507-.906-.039-.017-1.838-5.006-.323-.173 1.787Zm-6.773-1.713a5.957 5.957 0 0 0-.192 1.476c-.065 1.002.042 1.743.51 2.276.469.533 1.109.806 2.205.897 1.001.064 1.768-.138 2.396-.581.628-.443.832-1.203.992-2.179.064-1.001.122-1.597.034-2.028l-5.697-.406-.248.545ZM73.917 327.475l-.244 3.194 3.8 1.018-.115 1.192-4.974-.824 1.27-11.577 5.005.323-.115 1.191-3.917.173-.46 3.238 11.672 1.294.498-2.617.88.134-.788 7.123-.88-.134.04-2.434-11.672-1.294ZM88.042 313.536a6.038 6.038 0 0 1-2.823 1.79c-1.103.316-2.44.365-3.796.104-1.356-.262-2.566-.688-3.484-1.443-.918-.756-1.69-1.675-2.1-2.804-.411-1.129-.511-2.276-.275-3.537.16-.976.465-2.116.986-3.3l.248-.545 3.282.676-.236 1.26-2.46.055c-.145.164-.317.424-.54.873-.196.355-.349.925-.406 1.521a3.918 3.918 0 0 0 .32 2.225c.322.697.886 1.256 1.76 1.796.779.514 1.824.794 3.085 1.03 1.166.211 2.193.18 3.245.055.957-.151 1.87-.518 2.523-1.056.654-.538 1.048-1.247 1.207-2.223.083-.691.116-1.191.097-1.502-.019-.31-.132-.646-.341-1.008l-1.653-1.054.306-1.14 2.515.877c-.077.285.037.621.1 1.148.088.431.056.931.144 1.362.088.431-.04.907-.122 1.597-.331 1.236-.827 2.325-1.582 3.243ZM77.808 296.229l.88.134-.173 1.787 9.156 1.944-1.924-1.942-5.354-6.629-.475-.127-.528 1.59-.88-.134 1.038-5.019.88.135-.096 1.501 11.367 2.435.502-1.495.856.229-1.065 5.113-.855-.229.147-1.692-9.345-1.995 1.855 1.821 5.423 6.75.665.178.554-1.685.88.134-1.064 5.114-.88-.135.121-1.597-11.366-2.434-.477 1.4-.881-.134 1.039-5.018ZM82.388 276.473l4.803 1.084-.331 1.235-3.764-.397-1.165 3.965 11.455 2.866 1.03-3.085.856.229-1.79 7.058-.855-.229.345-2.047-11.265-2.814-.7 1.849-.855-.229 2.236-9.485ZM84.369 273.643l-.667 1.349-.855-.229 1.514-4.891.855.229-.217 1.572 4.796 1.488 1.896-6.316-4.796-1.489-.667 1.35-.855-.23 1.488-4.795.856.229-.192 1.476 11.112 3.385.572-1.375.855.23-1.489 4.795-.855-.229.313-1.546-5.176-1.59-1.897 6.316 5.176 1.591.598-1.47.855.229-1.514 4.891-.855-.229.287-1.451-11.138-3.29ZM88.903 255.2l.725-1.945 13.651-.009.591-1.064.83.324-1.653 4.65-.83-.324.312-1.546-2.934-.074-1.78 5.125 2.285 1.733.693-1.444.829.324-1.431 4.201-.83-.325.211-1.166-10.669-8.46Zm3.27-.041-1.691-.148 1.462 1.004 4.996 3.783 1.603-4.46-6.37-.179ZM101.799 246.228c1.488.908 2.596 1.714 3.204 2.488.303.387.487.844.6 1.18.088.431-.013.811-.115 1.191-.248.545-.445.9-.616 1.159l-1.4-.477c.171-.259.298-.735.546-1.279.051-.19.127-.476.058-.596-.044-.216-.183-.457-.323-.698-1.05-1.401-3.672-3.021-7.916-4.667l-1.374-.572-1.01 1.868-.83-.324 4.01-10.028.83.325-.458 1.71 10.763 4.31.838-1.609.83.324-2.142 5.334-.83-.324.509-1.901-10.762-4.31-1.443 3.484 1.565.623c2.153 1.087 3.977 1.881 5.466 2.789ZM104.809 230.432c.667-1.349 1.422-2.267 2.456-2.703 1.033-.436 2.034-.371 3.219.15 1.254.641 2.147 1.492 2.437 2.69.315 1.103.174 2.389-.493 3.738-.051.19-.197.355-.248.545-.146.165-.197.355-.368.614-.368.615-.616 1.159-.864 1.704l-1.017 2.274-.804-.419.502-1.495-10.584-4.975-.857 1.298-.804-.419 2.205-4.808.804.419-.579 1.781 3.883 1.855 1.112-2.249Zm.002-12.935.805.42-.553 1.685 10.489 4.949.908-1.488.804.419-2.351 4.972-.804-.419.553-1.685-10.489-4.95-.908 1.489-.804-.42 2.35-4.972Zm6.171 17.645c.146-.164.248-.544.445-.899.445-.9.484-1.806.187-2.598-.297-.793-.956-1.377-1.95-1.847-.899-.445-1.806-.484-2.478-.256-.697.322-1.256.885-1.7 1.785l-.769 1.729 5.707 2.65c.241-.14.412-.399.558-.564ZM109.871 210.399l-.926 1.177-.805-.419 2.509-4.421.804.42-.597 1.469 4.446 2.414 3.176-5.77-4.447-2.413-.926 1.177-.805-.419 2.388-4.351.805.419-.477 1.4 10.19 5.685.927-1.178.804.419-2.413 4.446-.805-.419.598-1.47-4.801-2.61-3.176 5.77 4.801 2.61.978-1.368.804.42-2.534 4.515-.804-.419.572-1.374-10.286-5.71ZM118.295 193.405l1.08-1.748 13.362 2.969.755-.918.779.515-2.647 4.179-.779-.514.692-1.444-2.851-.764-2.87 4.629 1.848 2.227 1.047-1.247.779.514-2.33 3.755-.779-.514.495-1.089-8.581-10.55Zm3.092.625-1.615-.433 1.196 1.237 4.12 4.771 2.502-4.015-6.203-1.56ZM127.861 180.893l-1.339 1.577-.779-.515 2.907-4.008 8.331 2.742 2.299.921-1.639-1.865-5.347-7.035 2.908-4.008.779.514-.985 1.774 10.337 5.519 1.142-1.221.779.514-3.225 4.432-.779-.514.813-1.514-7.328-4.204-3.192-1.772 1.753 2.201 6.138 8.266-.686 1.038-9.047-2.73-3.56-1.157 2.729 2.361 6.375 5.477 1.193-1.412.779.514-2.787 3.939-.779-.515.788-1.418-8.578-7.901Z" fill="currentColor" /><path d="m139.569 163.048 1.244-1.602 12.955 4.49.825-.798.753.61-3.072 3.862-.753-.609.857-1.298-2.68-1.024-3.389 4.286 1.607 2.366 1.117-1.126.753.609-2.755 3.438-.753-.609.591-1.064-7.3-11.531Zm3.016.91-1.565-.623 1.05 1.402 3.492 5.214 2.926-3.698-5.903-2.295ZM147.113 155.801l-1.161.911-.753-.609 1.631-1.906c.292-.329.584-.659.78-1.013.438-.494.781-1.013 1.219-1.507 1.168-1.317 2.303-2.133 3.26-2.284.958-.151 1.977.224 2.965 1.1.754.609 1.266 1.358 1.537 2.245.272.888.258 1.699.029 2.554-.229.856-.674 1.755-1.378 2.483-.267.234-.464.589-.73.823-.266.234-.412.399-.438.494l3.153 2.678 1.796-1.76.658.584-3.992 4.635-.658-.584.857-1.298-8.775-7.546Zm7.47 1.39c.61-.753.934-1.583.853-2.42-.082-.836-.569-1.68-1.626-2.676-.823-.73-1.558-1.029-2.299-.922-.742.107-1.37.55-2.22 1.442-.292.33-.489.684-.781 1.013-.172.26-.292.33-.317.425l5.058 4.309c.336-.114.749-.512 1.332-1.171ZM164.949 153.857c-1.103.316-2.199.226-3.339-.08a9.02 9.02 0 0 1-3.237-1.987c-.962-.971-1.708-1.986-2.094-3.21-.41-1.128-.39-2.345-.179-3.511.305-1.14.801-2.23 1.746-3.097.705-.728 1.504-1.43 2.735-2.221l.507-.374 2.298 2.45-.851.892-2.102-1.276a3.228 3.228 0 0 0-.913.366c-.362.209-.774.608-1.187 1.007a3.42 3.42 0 0 0-.94 1.988c-.109.786.093 1.553.46 2.466.392.818 1.069 1.713 1.961 2.563.798.825 1.767 1.39 2.666 1.835.9.445 1.78.579 2.617.497.837-.081 1.56-.499 2.239-1.131.438-.494.755-.919.926-1.178.172-.26.274-.64.255-.951l-.828-1.851.92-.772 1.658 2.176c-.146.164-.343.519-.591 1.064-.222.449-.419.804-.616 1.159-.197.354-.514.779-.952 1.272-1.066.937-2.151 1.563-3.159 1.904ZM176.018 124.33l.633.679-1.193 1.412 6.279 6.979-.384-2.751-.382-8.455-.304-.387-1.376.956-.633-.679 3.876-3.443.633.678-.927 1.178 7.753 8.698 1.256-.885.633.678-3.876 3.443-.633-.678 1.142-1.222-6.348-7.1.434 2.561.332 8.645.468.533 1.402-1.05.633.679-3.902 3.538-.633-.679 1.022-1.152-7.753-8.699-1.23.791-.633-.679 3.711-3.589ZM185.699 116.332c.318-.425.635-.849.927-1.178a8.61 8.61 0 0 1 .825-.798c1.186-1.006 2.34-1.512 3.297-1.663.958-.151 1.762.269 2.464 1.068.608.774.905 1.567.771 2.447a4.68 4.68 0 0 1-1.042 2.369c.894-.677 1.807-1.043 2.688-.909.906.039 1.615.433 2.223 1.207.842 1.04 1.157 2.143.972 3.214-.185 1.071-.991 2.179-2.419 3.324-.533.469-1.135.817-1.617 1.095a7.22 7.22 0 0 1-1.275.575c-.336.114-.551.158-.577.253l-1.815-2.727.774-.608 1.931 1.536c.646-.132 1.464-.524 2.264-1.227.653-.538 1.022-1.152.984-1.773-.012-.716-.239-1.388-.941-2.188-.443-.628-1.058-.996-1.748-1.079-.691-.083-1.484.214-2.378.891l-1.04.841-.703-.799.8-.703c.386-.303.704-.728.926-1.177.223-.45.35-.925.287-1.451s-.341-1.008-.714-1.516c-.538-.653-1.057-.996-1.679-.959-.621.037-1.198.29-1.826.733-.412.399-.704.728-.996 1.057a.92.92 0 0 0-.229.856l.809 1.541-.92.772-1.968-2.157c.241-.14.533-.469.945-.867ZM198.886 107.031l-1.42.74-.513-.748 2.03-1.494c.361-.208.774-.607 1.281-.98.413-.399.8-.703 1.041-.842 1.402-1.05 2.556-1.556 3.462-1.517.906.039 1.711.458 2.318 1.232.512.749.714 1.516.701 2.327-.014.811-.408 1.521-.992 2.179.92-.772 1.903-1.018 2.809-.979.906.039 1.685.553 2.198 1.302.746 1.015.967 2.092.756 3.258-.21 1.166-1.232 2.318-2.9 3.603-.387.304-.749.512-1.11.721-.844.487-1.256.886-1.472.93l-2.029 1.493-.513-.748 1.091-1.032-6.738-9.445Zm5.403 2.263.869-.582c.749-.513 1.117-1.127 1.175-1.723.058-.595-.144-1.362-.657-2.111-.512-.748-1.031-1.091-1.627-1.149-.596-.058-1.388.239-2.162.847-.387.304-.749.512-1.041.841l-.266.235 3.056 4.18c-.095-.026.266-.234.653-.538Zm4.786 4.949c1.015-.747 1.624-1.5 1.733-2.286.108-.786-.094-1.553-.606-2.301-.608-.774-1.196-1.237-1.792-1.295-.691-.083-1.388.239-2.283.916-1.015.747-1.643 1.19-1.909 1.424l3.265 4.541c.215-.044.723-.417 1.592-.999ZM211.447 96.646l1.738-1.164 10.935 8.226 1.059-.531.513.749-4.104 2.771-.512-.749 1.186-1.006-2.26-1.828-4.586 3.049.789 2.758 1.42-.74.513.749-3.717 2.467-.512-.749.824-.797-3.286-13.205Zm2.666 1.835-1.342-1.073.568 1.68 1.736 6.067 3.958-2.606-4.92-4.069ZM228.02 101.698c-1.122.005-2.142-.37-3.206-.961-.943-.66-1.81-1.605-2.601-2.836-.696-1.205-1.081-2.428-1.181-3.576-.1-1.147.231-2.382.796-3.351.591-1.064 1.416-1.862 2.526-2.583.843-.487 1.877-.923 3.221-1.378l.577-.253 1.549 2.962-1.084.626-1.665-1.77c-.19-.051-.526.063-.957.15-.431.089-.913.367-1.395.646a3.422 3.422 0 0 0-1.46 1.646c-.298.734-.407 1.52-.256 2.477.151.957.587 1.991 1.238 2.98.652.99 1.329 1.884 2.083 2.494.753.609 1.557 1.028 2.413 1.257.855.23 1.622.028 2.466-.46.602-.347.989-.651 1.16-.91.267-.235.464-.59.54-.874l-.276-2.01 1.059-.531.96 2.498c-.241.14-.507.373-.825.798-.292.329-.584.658-.971.962-.292.329-.774.607-1.256.886a5.844 5.844 0 0 1-3.455 1.111ZM237.77 83.939c.09-1.096.37-2.142.91-3.016.539-.874 1.218-1.507 2.182-2.063 1.085-.626 2.162-.847 3.164-.782a4.742 4.742 0 0 1 2.844 1.17c.823.73 1.595 1.649 2.316 2.759.765 1.325 1.125 2.644 1.2 3.886.074 1.243-.111 2.313-.676 3.282-.565.97-1.27 1.697-2.234 2.254-1.084.626-2.162.847-3.258.757a5.44 5.44 0 0 1-2.87-1.075 8.1 8.1 0 0 1-2.316-2.76l-2.625 1.436 2.592 4.769 1.49-.62.392.819-4.528 2.453-.392-.818 1.256-.886-5.508-10.235-1.464.524-.487-.843 4.407-2.384.487.843-1.256.886 2.384 4.407 2.721-1.41c-.531-1.059-.752-2.136-.731-3.353Zm1.763-1.26c-.141 1.287.263 2.821 1.307 4.629.904 1.566 1.815 2.727 2.974 3.343 1.159.617 2.16.681 3.34.08 1.059-.53 1.624-1.5 1.645-2.716.02-1.217-.384-2.751-1.332-4.533-.905-1.567-1.816-2.728-2.88-3.318-1.064-.591-2.16-.681-3.219-.15-1.059.531-1.694 1.38-1.835 2.666ZM258.493 79.204c.709.394 1.583.934 2.742 1.55.779.514 1.299.857 1.748 1.08.45.222.64.273.856.229l.741-.107.392.818-2.092.967c-.241.139-.622.037-1.166-.21-.545-.249-1.229-.737-2.172-1.398a25.002 25.002 0 0 0-2.502-1.688c-.614-.369-1.115-.4-1.451-.287l-1.059.53 2.282 4.788 1.56-.498.392.818-4.667 2.212-.392-.818 1.325-.765-4.93-10.488-1.439.429-.392-.818 4.546-2.143.392.818-1.351.86 2.257 4.883 1.42-.74 1.136-6.52-1.559.499-.392-.818 4.185-1.934.392.817-1.231.791-1.377 6.66c.406.006 1.071.184 1.806.483ZM267.699 80.958c-1.07-.185-1.944-.724-2.742-1.55a9.76 9.76 0 0 1-2.094-3.209c-.55-1.37-.84-2.567-.724-3.759.115-1.191.396-2.236 1.056-3.18.66-.943 1.554-1.62 2.588-2.056 1.826-.733 3.353-.732 4.798-.04 1.444.693 2.589 2.12 3.392 4.067.549 1.37.814 2.663.699 3.855-.116 1.19-.422 2.331-1.082 3.275-.66.943-1.554 1.62-2.588 2.056-1.179.601-2.232.727-3.303.541Zm-3.6-10.131c-.236 1.26.073 2.77.78 4.69.759 1.732 1.645 2.987 2.683 3.673 1.013.78 2.11.87 3.264.365 1.128-.41 1.788-1.354 2.024-2.615.236-1.26-.047-2.864-.875-4.716-.758-1.731-1.644-2.987-2.683-3.673-1.038-.685-2.109-.87-3.263-.365-1.059.531-1.694 1.38-1.93 2.64ZM275.058 64.901l-1.509.309-.272-.888 2.378-.89c.431-.089.913-.367 1.49-.62.577-.252.939-.461 1.249-.48 1.585-.594 2.853-.763 3.708-.534.856.23 1.514.813 1.855 1.821.297.793.378 1.63.08 2.364-.299.735-.788 1.419-1.511 1.836 1.129-.41 2.061-.466 2.916-.237.855.229 1.488.908 1.829 1.916.411 1.128.39 2.345-.175 3.314-.591 1.064-1.847 1.95-3.768 2.658a6.604 6.604 0 0 1-1.223.385c-.888.271-1.465.524-1.68.568l-2.378.89-.297-.792 1.42-.74-4.112-10.88Zm4.615 3.681 1.008-.34c.793-.297 1.326-.766 1.599-1.406.273-.64.262-1.355-.13-2.174-.297-.792-.766-1.325-1.31-1.573-.545-.248-1.382-.166-2.39.175-.456.183-.818.392-1.274.575l-.362.209 1.851 4.876c.121-.07.457-.184 1.008-.342Zm3.168 6.044c1.129-.41 1.903-1.018 2.297-1.727.393-.71.382-1.426.041-2.434-.367-.913-.835-1.446-1.38-1.694-.64-.273-1.477-.192-2.51.244-1.224.386-1.921.708-2.257.822l1.965 5.212c.259.17.931-.056 1.844-.423ZM302.582 54.553l.271.888-1.42.74 3.345 11.082 1.724-.353.272.887-4.99 1.515-.271-.887 1.395-.645-3.415-11.203-5.757 1.717 3.415 11.203 1.725-.353.271.888-4.989 1.515-.272-.888 1.395-.645-3.346-11.082-1.603.283-.272-.887 12.522-3.775ZM310.382 66.116a5.537 5.537 0 0 1-2.545-1.904c-.677-.895-1.183-2.049-1.517-3.463-.334-1.413-.409-2.656-.173-3.916.211-1.166.776-2.135 1.506-2.958.729-.823 1.693-1.38 2.892-1.67 1.87-.517 3.441-.3 4.809.678 1.273.952 2.203 2.423 2.739 4.604.334 1.414.383 2.75.172 3.917a5.467 5.467 0 0 1-1.626 3.027 6.774 6.774 0 0 1-2.892 1.67c-1.318.36-2.345.39-3.365.015Zm-2.136-10.656c-.426 1.21-.332 2.763.16 4.728.422 1.845 1.187 3.17 2.08 4.02.892.85 2.033 1.156 3.136.84 1.198-.29 1.902-1.017 2.354-2.322.426-1.21.358-2.858-.134-4.823-.422-1.845-1.187-3.17-2.08-4.021-.892-.85-1.938-1.13-3.136-.84-1.154.505-1.979 1.303-2.38 2.418ZM324.309 58.236c.137 1.769-.004 3.055-.379 4.075-.127.475-.445.9-.711 1.133a2.325 2.325 0 0 1-1.059.531c-.552.158-1.052.126-1.268.17l-.429-1.439c.31-.019.741-.107 1.388-.24.216-.043.431-.087.577-.252.146-.165.292-.33.368-.614.649-1.66.437-4.67-.489-9.197l-.335-1.413-2.199.225-.176-.862 10.561-2.161.176.862-1.68.568 2.338 11.423 1.888-.206.177.862-5.604 1.146-.176-.862 1.895-.612-2.337-11.423-3.664.75.378 1.629c.32 2.224.597 4.234.76 5.907ZM333.922 48.589l-1.527-.002-.151-.957 9.381-1.56.764 2.852-1.053.126-.853-1.757-4.545.616.843 5.217 3.113-.592.001-1.528 1.053-.125.692 4.26-1.053.125-.498-1.56-3.087.497.861 5.528 5.173-1.059.567-2.496 1.166.21.04 3.27-10.218 1.643-.176-.862 1.534-.404-2.027-11.442ZM349.332 46.2l-3.182.47-.138 3.936-1.268.17-.298-4.97 11.574-1.38.824 4.907-1.147.1-1.104-3.861-3.227.256 1.45 11.694 2.675-.098.056.932-7.055.86-.056-.932 2.371-.485-1.475-11.6ZM364.611 51.516l-.931.056c-.267.234-.584.658-.832 1.203-.273.64-.572 1.375-.827 2.325-.349.925-.527 1.59-.75 2.04-.222.45-.394.709-.609.753l-2.51.244-.056-.931.672-.228c.216-.044.361-.209.558-.563.197-.355.445-.9.744-1.634.324-.83.718-1.54.966-2.084.342-.52.66-.944 1.021-1.153-.88-.134-1.59-.527-2.128-1.18-.538-.654-.835-1.447-.89-2.378-.119-1.458.282-2.573 1.055-3.18.895-.678 2.118-1.063 3.766-1.13.311-.02.837-.082 1.433-.024.621-.038 1.026-.03 1.337-.05l2.7-.193.056.932-1.509.309.905 11.447 1.718.052.056.932-5.521.456-.056-.932 1.82-.327-.394-4.995-1.794.233Zm.763-7.028c-.596-.057-1.027.03-1.527-.002-.932.056-1.725.353-2.137.752-.533.468-.737 1.229-.611 2.281.03 1.027.448 1.75.916 2.283.589.463 1.349.667 2.281.61 1.027-.03 1.673-.162 1.984-.18l-.405-5.711-.501-.033ZM376.098 44l-3.226.256-.543 3.929-1.243.074.133-5.057 11.63-.449.393 4.995-1.121.005-.794-3.88-3.27.04.397 11.82 2.624.093.056.931-7.092.24-.056-.932 2.415-.27L376.098 44ZM391.934 55.984a6.553 6.553 0 0 1-2.177-2.518c-.531-1.06-.701-2.327-.725-3.76.072-1.406.403-2.642.994-3.706.59-1.064 1.415-1.861 2.474-2.392 1.059-.531 2.162-.847 3.474-.8.906.038 2.098.154 3.428.51l.57.153-.295 3.384-1.217-.02-.39-2.346c-.165-.146-.424-.317-.9-.445-.475-.127-.976-.16-1.571-.217a3.414 3.414 0 0 0-2.111.657c-.628.442-1.117 1.126-1.536 1.93a9.419 9.419 0 0 0-.651 3.188c-.02 1.217.105 2.269.377 3.156.271.888.758 1.731 1.417 2.315.658.584 1.393.883 2.299.922.716-.012 1.122-.005 1.553-.093.336-.114.672-.228.939-.462l.794-1.824 1.166.21-.498 2.617c-.31.019-.646.133-1.172.195-.431.089-.888.272-1.294.265-.431.088-.931.056-1.552.093-1.312-.046-2.453-.351-3.396-1.012ZM407.539 43.36l-.039.906-1.863.112-.683 9.391 1.707-2.19 5.832-6.179.032-.5-1.641-.338.039-.907 5.102.349-.039.906-1.458.119-.768 11.61 1.546.311-.039.907-5.197-.374.039-.906 1.648-.068.614-9.512-1.562 2.026-5.952 6.248-.083.69 1.761.27-.039.905-5.291-.399.039-.906 1.553-.093.768-11.61-1.451-.287.039-.906 5.386.425ZM427.818 45.228l-.393 4.886-1.286-.141-.103-3.797-4.119-.594-1.32 11.767 3.213.556-.134.88-7.313-.838.134-.881 2.028.034 1.244-11.482-1.901-.51.134-.88 9.816 1ZM430.965 46.785l-1.4-.477.135-.881 4.999.729-.134.88-1.623-.027-.728 5 6.45 1.015.729-5-1.495-.502.134-.88 4.999.728-.134.88-1.527-.001-1.744 11.45 1.426.382-.135.88-4.999-.728.134-.881 1.528.002.83-5.38-6.451-1.015-.83 5.38 1.616.432-.135.881-5.094-.754.134-.88 1.527.001 1.788-11.234ZM449.786 48.772l2.021.44 1.872 13.54 1.115.4-.134.88-4.828-.988.134-.88 1.597.122-.332-2.941-5.303-1.116-1.404 2.578 1.495.503-.134.88-4.353-.86.134-.881 1.217.02 6.903-11.697Zm.592 3.113-.163-1.674-.718 1.54-3.004 5.51 4.638.937-.753-6.313ZM460.476 60.193c-.623 1.565-1.359 2.793-2.064 3.521-.412.399-.774.608-1.11.721-.336.114-.741.107-1.216-.02-.571-.153-1.046-.28-1.305-.452l.192-1.476 1.33.356c.19.051.406.007.621-.037.216-.044.362-.209.628-.443 1.237-1.196 2.502-4.015 3.604-8.507l.382-1.425-1.996-.535.255-.95 10.504 2.61-.254.95-1.787-.172-2.815 11.264 1.755.674-.23.856-5.632-1.408.229-.855 1.952.32 2.814-11.266-3.731-.898-.433 1.616a36.467 36.467 0 0 1-1.693 5.556ZM476.548 61.036c1.4.477 2.438 1.162 3.02 2.031.582.87.682 2.017.256 3.226-.477 1.4-1.232 2.319-2.266 2.755-1.154.505-2.37.485-3.796.103l-.57-.153c-.19-.05-.38-.102-.64-.273-.64-.273-1.305-.452-1.85-.7l-2.445-.757.229-.855 1.546.312 3.385-11.112-1.349-.667.229-.855 5.081 1.565-.229.855-1.857-.293-1.31 4.13 2.566.688Zm-3.836 6.713c.19.05.544.248.925.35 1.045.28 1.856.293 2.579-.124.723-.417 1.212-1.101 1.492-2.147.28-1.045.268-1.761-.149-2.484-.348-.603-1.032-1.092-2.052-1.467l-1.805-.483-1.82 6.03c.38.103.64.274.83.325Zm16.633-8.479-.229.855-1.761-.268-3.385 11.112 1.634.744-.229.855-5.271-1.616.229-.855 1.736.363 3.385-11.112-1.634-.744.229-.855 5.296 1.521ZM497.034 63.266l-1.323-.762.324-.83 4.719 1.774-.324.83-1.546-.313-1.774 4.72 6.189 2.371 1.774-4.72-1.323-.761.324-.83 4.719 1.774-.324.83-1.451-.287-4.145 10.908 1.349.667-.324.83-4.72-1.774.325-.83 1.52.408 1.971-5.074-6.189-2.372-1.971 5.074 1.419.788-.324.83-4.789-1.895.324-.83 1.52.408 4.05-10.934ZM515.026 69.105l1.92.82-1.018 13.682.943.66-.324.83-4.548-2.034.324-.83 1.496.503.383-2.953-5.023-2.16-1.897 2.139 1.418.788-.324.83-4.098-1.812.324-.83 1.14.306 9.284-9.939Zm-.054 3.245.242-1.667-1.072 1.343-4.113 4.704 4.384 1.887.559-6.267ZM528.738 76.853l-1.723-1.174.42-.805 4.376 2.293-1.506 8.662-.541 2.401 1.605-1.81 6.168-6.293 4.377 2.294-.42.804-1.945-.725-4.05 10.934 1.368.978-.419.804-4.731-2.49.419-.804 1.564.623 3.115-7.824 1.323-3.414-1.967 2.02-7.234 7.228-1.064-.59 1.494-9.378.657-3.593-1.936 3.046-4.559 7.13 1.558 1.03-.42.804-4.281-2.268.419-.804 1.47.597 6.463-9.676Z" fill="currentColor" /><path d="m548.107 85.914 1.748 1.08-2.589 13.464.944.66-.42.805-4.23-2.458.419-.805 1.47.598.643-2.781-4.655-2.776-2.157 1.969 1.273.952-.419.804-3.781-2.235.419-.804 1.115.4 10.22-8.873Zm-.434 3.143.433-1.615-1.238 1.196-4.701 4.24 4.136 2.433 1.37-6.254ZM556.377 92.306l-1.058-.997.515-.779 2.077 1.372c.354.197.779.514 1.133.711.615.368 1.159.616 1.679.959 1.463 1.003 2.425 1.974 2.671 2.956.246.983.061 2.054-.625 3.093a4.568 4.568 0 0 1-2.011 1.803c-.818.392-1.655.474-2.536.34-.881-.135-1.805-.484-2.679-1.024a4.783 4.783 0 0 1-.944-.66c-.355-.197-.519-.343-.589-.464l-2.254 3.471 2.027 1.561-.515.779-5.123-3.308.514-.779 1.444.693 6.274-9.727Zm-.32 7.655c.874.54 1.634.743 2.496.567.862-.176 1.636-.784 2.373-2.012.54-.874.769-1.73.542-2.402-.228-.672-.766-1.325-1.709-1.986-.355-.196-.71-.393-1.159-.616-.26-.171-.45-.222-.45-.222l-3.625 5.547c.329.292.753.61 1.532 1.124ZM560.786 109.682a5.851 5.851 0 0 1-.351-3.251c.185-1.071.732-2.351 1.563-3.554.806-1.108 1.752-1.975 2.811-2.506 1.059-.531 2.232-.726 3.423-.61 1.191.115 2.306.515 3.319 1.296.779.514 1.672 1.365 2.539 2.31l.494.438-2.12 2.589-1.039-.685.992-2.179c-.045-.216-.279-.482-.487-.844-.209-.361-.728-.704-1.248-1.047-.684-.489-1.349-.667-2.16-.681-.811-.013-1.604.284-2.352.796-.749.513-1.574 1.31-2.234 2.254-.66.943-1.13 1.938-1.48 2.862-.255.951-.389 1.832-.117 2.719.271.888.714 1.516 1.493 2.03.519.343.944.66 1.324.762.38.102.665.178.975.16l1.713-1.069.892.85-1.941 1.924c-.26-.171-.64-.273-1.09-.495-.475-.128-.829-.325-1.305-.452-.354-.197-.804-.419-1.323-.762-.988-.876-1.855-1.821-2.291-2.855ZM588.046 113.625l-.61.754-1.558-1.029-5.921 7.275 2.663-.814 8.285-1.651.317-.424-1.101-1.212.609-.753 4.002 3.313-.61.753-1.323-.762-7.407 9.016 1.127 1.117-.584.658-4.002-3.313.584-.658 1.393.882 6.043-7.344-2.448.77-8.5 1.695-.438.494 1.196 1.237-.584.658-4.096-3.338.584-.659 1.298.857 7.407-9.015-1.032-1.092.609-.753 4.097 3.338ZM597.523 121.97c.545.248.874.54 1.229.737.354.197.684.489.943.66 1.152 1.022 1.899 2.037 2.145 3.02.246.982.017 1.837-.688 2.565-.704.728-1.427 1.146-2.333 1.107-.837.081-1.692-.148-2.471-.662.798.825 1.285 1.668 1.366 2.505.081.836-.243 1.666-.827 2.325-.876.987-1.935 1.518-3.031 1.428-1.122.005-2.281-.611-3.693-1.804-.588-.463-.962-.971-1.335-1.478-.373-.508-.582-.869-.816-1.136l-.348-.602 2.424-2.203.658.584-1.181 2.128c.227.672.765 1.326 1.493 2.03.658.584 1.203.832 1.945.725.646-.133 1.344-.455 1.953-1.208.559-.564.737-1.229.82-1.92.083-.69-.429-1.439-1.252-2.169l-.988-.875.704-.728.823.729c.425.318.849.635 1.324.762.475.128.976.16 1.527.002.552-.157.939-.461 1.377-.955.584-.658.832-1.203.699-1.85-.037-.621-.41-1.128-1.069-1.712-.399-.413-.753-.61-1.203-.832a1.234 1.234 0 0 0-.881-.134l-1.402 1.05-.918-.755 1.828-2.26c.304.387.659.584 1.178.926ZM608.663 133.613l-.885-1.256.678-.633 1.76 1.796c.329.292.728.704 1.222 1.142l.988.876c1.196 1.237 1.943 2.252 1.998 3.184.177.862-.147 1.692-.852 2.42-.679.633-1.376.955-2.118 1.062-.741.107-1.597-.123-2.376-.637.893.851 1.38 1.694 1.436 2.626.056.931-.243 1.666-.947 2.394-.851.893-1.979 1.303-3.075 1.213-1.192-.115-2.515-.877-3.971-2.286-.33-.292-.633-.679-.867-.945-.633-.679-1.032-1.092-1.197-1.238l-1.759-1.795.678-.633 1.273.952 8.014-8.242Zm-5.533 11.148c.893.85 1.671 1.364 2.483 1.378.811.013 1.508-.309 2.187-.942.679-.633.978-1.368.941-1.989-.038-.621-.455-1.344-1.253-2.169-.892-.85-1.456-1.408-1.69-1.675l-3.908 3.944c.044.215.537.653 1.24 1.453Zm4.221-5.49.728.704c.658.584 1.273.952 1.894.915.621-.037 1.319-.36 1.902-1.018.584-.658.927-1.178.89-1.799-.038-.621-.455-1.344-1.183-2.048a15.657 15.657 0 0 0-1.083-.901l-.329-.292-3.642 3.709c.19.051.424.317.823.73ZM620.964 144.345l1.431 1.504-6.384 12.04.652.989-.679.633-3.304-3.635.679-.633 1.152 1.022 1.499-2.553-3.703-4.047-2.669 1.22.98 1.281-.678.633-3.001-3.249.679-.632.918.755 12.428-5.328Zm-1.48 2.863.908-1.488-1.541.809-5.7 2.649 3.234 3.515 3.099-5.485ZM618.409 161.486c-.195-1.173-.01-2.244.486-3.333.495-1.09 1.276-2.103 2.437-3.014 1.066-.937 2.22-1.442 3.418-1.733 1.198-.29 2.389-.174 3.504.226 1.115.401 2.059 1.061 2.9 2.102a18.01 18.01 0 0 1 1.86 2.943l.253.577-2.683 2.031-.772-.92 1.536-1.931c-.044-.216-.063-.526-.272-.888-.208-.361-.487-.843-.886-1.256a3.536 3.536 0 0 0-1.912-1.225c-.76-.204-1.597-.123-2.484.149-.888.271-1.852.828-2.772 1.6-.92.772-1.65 1.595-2.164 2.374-.54.874-.769 1.729-.783 2.54-.013.812.284 1.604.891 2.378.469.533.798.825 1.153 1.022.354.197.614.368.924.35l1.896-.613.652.989-2.315 1.417c-.165-.146-.494-.438-.918-.755-.45-.222-.779-.514-1.108-.806-.33-.292-.754-.609-1.127-1.117a5.166 5.166 0 0 1-1.714-3.107ZM637.432 168.416a6.707 6.707 0 0 1 3.048.409c.925.35 1.748 1.079 2.356 1.853.746 1.015 1.113 1.928 1.238 2.981.031 1.026-.129 2.002-.694 2.971a8.546 8.546 0 0 1-2.456 2.703 9.583 9.583 0 0 1-3.634 1.777c-1.198.29-2.294.2-3.409-.201-1.115-.4-1.868-1.01-2.545-1.904-.747-1.015-1.183-2.049-1.309-3.101-.125-1.052.13-2.002.6-2.997a9.843 9.843 0 0 1 2.361-2.728l-1.797-2.417-4.352 3.316.835 1.445-.748.513-3.082-4.085.748-.513 1.127 1.117 9.211-7.005-.765-1.325.773-.608 3.012 3.965-.774.608-1.126-1.117-3.965 3.012 1.797 2.417c1.37-.55 2.473-.866 3.55-1.086Zm1.621 1.554c-1.242.075-2.732.694-4.401 1.979-1.427 1.145-2.423 2.202-2.849 3.412-.426 1.21-.301 2.263.446 3.277.772.92 1.671 1.365 2.939 1.195 1.242-.074 2.663-.814 4.306-2.003 1.427-1.146 2.423-2.203 2.849-3.413.426-1.21.301-2.262-.376-3.157-.677-.894-1.672-1.364-2.914-1.29ZM645.381 188.168c-.203.76-.673 1.754-1.194 2.939-.42.804-.598 1.469-.795 1.824-.102.38-.204.76-.134.881l.227.672-.748.512-1.329-1.883c-.139-.241-.132-.647.116-1.192.248-.544.572-1.374 1.042-2.369.616-1.159.966-2.084 1.239-2.723.273-.64.211-1.166.097-1.502l-.652-.99-4.37 3.005.714 1.516-.748.512-2.841-4.224.749-.512 1.006 1.186 9.584-6.497-.645-1.395.749-.513 2.771 4.104-.749.512-1.006-1.186-4.465 2.98.86 1.351 6.585.134-.74-1.42.748-.513 2.537 3.838-.748.512-1.032-1.091-6.749-.281c.183.457.125 1.052-.079 1.813ZM645.009 197.54c.065-1.001.345-2.047 1.1-2.965.66-.943 1.606-1.81 2.811-2.506 1.23-.791 2.454-1.176 3.601-1.276 1.242-.075 2.313.111 3.308.581.994.47 1.817 1.2 2.443 2.284.974 1.687 1.283 3.196.755 4.786-.503 1.495-1.67 2.812-3.503 3.95-1.231.791-2.454 1.176-3.722 1.346-1.242.074-2.313-.111-3.403-.606-.994-.47-1.792-1.295-2.443-2.285-.696-1.205-.916-2.282-.947-3.309Zm9.538-5.185c-1.217-.021-2.776.478-4.489 1.547-1.592.999-2.683 2.031-3.204 3.216-.616 1.159-.491 2.211.135 3.295.652.99 1.621 1.555 2.838 1.575 1.312.046 2.776-.478 4.489-1.547 1.592-.999 2.683-2.031 3.204-3.216.496-1.089.491-2.211-.136-3.295-.651-.99-1.525-1.53-2.837-1.575ZM662.039 202.409l-.525-1.465.844-.487 1.252 2.169c.209.362.487.844.86 1.351.374.508.582.869.722 1.11.809 1.541 1.22 2.67 1.06 3.645-.16.976-.623 1.565-1.492 2.147-.723.418-1.585.594-2.371.485-.786-.108-1.495-.502-2.102-1.276.626 1.084.802 1.946.643 2.922-.135.881-.718 1.539-1.562 2.026-1.084.627-2.232.727-3.347.326-1.114-.401-2.146-1.492-3.19-3.299-.208-.362-.392-.818-.6-1.18-.487-.843-.74-1.42-.81-1.541l-1.252-2.169.818-.392.886 1.256 10.166-5.628Zm-8.459 9.141c.626 1.085 1.259 1.764 2.019 1.967.76.204 1.502.097 2.345-.39.844-.487 1.307-1.076 1.46-1.646.153-.57-.024-1.432-.58-2.396l-1.183-2.049-4.889 2.663c.088.431.341 1.008.828 1.851Zm5.582-4.106.461.938c.418.723 1.006 1.187 1.577 1.339.665.179 1.311.046 2.155-.441.723-.417 1.161-.911 1.314-1.481.152-.57-.049-1.337-.606-2.301-.209-.362-.512-.749-.696-1.205l-.208-.362-4.554 2.549.557.964ZM676.598 227.903l-.818.392-.861-1.351-10.419 5.052.569 1.68-.818.392-2.282-4.788.818-.392.86 1.351 10.514-5.026-2.63-5.39-10.539 5.121.568 1.68-.818.392-2.308-4.693.818-.391.791 1.23 10.419-5.051-.499-1.56.818-.392 5.817 11.744ZM666.294 237.467c.185-1.07.724-1.944 1.454-2.767a10.873 10.873 0 0 1 3.115-2.12c1.274-.575 2.567-.84 3.759-.724 1.191.115 2.236.396 3.18 1.056.943.66 1.62 1.554 2.056 2.588.733 1.826.827 3.379.039 4.798-.692 1.444-2.12 2.589-4.066 3.392-1.37.549-2.663.814-3.854.699-1.192-.116-2.332-.421-3.276-1.082-.943-.66-1.62-1.554-2.151-2.613-.316-1.104-.511-2.276-.256-3.227Zm10.157-3.695c-1.261-.236-2.77.073-4.716.875-1.731.759-2.987 1.645-3.673 2.683-.686 1.039-.871 2.11-.365 3.264s1.354 1.788 2.615 2.024c1.261.236 2.865-.047 4.716-.875 1.731-.758 2.987-1.644 3.673-2.683.686-1.038.776-2.134.365-3.263-.506-1.154-1.354-1.789-2.615-2.025ZM676.204 249.901c-1.725.353-3.087.497-4.063.337-.475-.127-.951-.254-1.185-.521-.329-.292-.563-.558-.746-1.015-.253-.577-.341-1.008-.36-1.318l1.395-.645c.019.311.202.767.455 1.344.044.216.208.362.373.508.165.146.355.196.64.273 1.736.363 4.753-.254 8.957-1.878l1.37-.55-.562-2.086.913-.366 3.816 10.088-.913.366-.809-1.541-10.881 4.113.448 1.75-.887.271-2.009-5.427.887-.272.854 1.757 10.88-4.113-1.301-3.506-1.585.594c-2.093.967-3.963 1.484-5.687 1.837ZM687.285 257.963l-.309-1.509.887-.272 2.975 9.048-2.644 1.125-.342-1.008 1.523-1.12-1.357-4.438-5.015 1.61 1.048 2.929 1.578-.188.341 1.008-4.127 1.339-.341-1.009 1.421-.739-.929-2.999-5.255 1.749 1.825 4.971 2.598.187.005 1.122-3.277.446-3.271-9.84.888-.272.645 1.395 11.133-3.535ZM692.071 272.792l-1.023-3.024-3.994.458-.29-1.198 4.863-1.04 3.199 11.247-4.799 1.565-.316-1.103 3.608-1.681-.782-3.164-11.342 3.175.53 2.586-.888.272-1.937-6.835.887-.271.822 2.257 11.462-3.244ZM689.13 288.709l-.176-.862c-.235-.267-.71-.394-1.375-.572-.665-.178-1.451-.287-2.427-.447-.976-.159-1.641-.338-2.116-.465-.475-.127-.735-.299-.779-.514l-.555-2.492.863-.176.322.698c.07.12.329.291.684.488.38.102.95.255 1.685.554l2.281.611c.545.248.994.47 1.323.762.04-.906.338-1.641.802-2.23a3.858 3.858 0 0 1 2.169-1.252c1.413-.334 2.579-.124 3.307.581.728.704 1.329 1.883 1.707 3.513.114.336.177.862.239 1.388.038.621.126 1.052.239 1.388l.625 2.612-.888.271-.619-1.49-11.31 2.674.258 1.699-.837.081-1.318-5.344.862-.177.569 1.681 4.792-1.161-.327-1.819Zm6.997-.264c-.063-.526-.125-1.052-.214-1.483-.246-.983-.593-1.586-1.087-2.024-.494-.437-1.305-.451-2.288-.205-.982.246-1.705.663-2.074 1.278-.368.614-.477 1.4-.231 2.382.246.983.379 1.63.518 1.871l5.559-1.363-.183-.456ZM698.314 298.911l-.687-3.138-4.012.147-.195-1.172 4.95-.609 2.243 11.398-4.888 1.134-.195-1.172 3.722-1.346-.472-3.182-11.587 2.192.313 2.63-.862.177-1.386-6.992.862-.177.701 2.327 11.493-2.217ZM688.951 316.366c.47-.995 1.226-1.913 2.19-2.469.989-.652 2.213-1.037 3.601-1.276 1.363-.144 2.675-.098 3.764.397 1.115.401 2.033 1.156 2.805 2.076.772.92 1.183 2.048 1.352 3.316.151.957.156 2.079-.01 3.46l-.058.596-3.321.231-.17-1.268 2.258-.821c.145-.165.247-.545.254-.951.007-.405.065-1.001-.093-1.552a3.47 3.47 0 0 0-.993-1.998c-.563-.558-1.272-.952-2.223-1.207-.95-.254-1.977-.224-3.219-.149-1.173.195-2.155.441-3.094.902-.938.462-1.592 1-2.081 1.683-.488.684-.623 1.565-.541 2.402.132.646.195 1.172.404 1.534.113.336.347.602.582.869l1.9.509-.02 1.217-2.719-.117a3.592 3.592 0 0 0-.41-1.129c-.184-.456-.392-.818-.481-1.249-.088-.431-.271-.888-.308-1.509.02-1.217.136-2.408.631-3.497ZM703.854 329.934l-.932.056-.422-1.845-9.394.844 2.388 1.353 7.08 4.749.526-.063.053-1.717.931-.056.463 5.115-.932.056-.334-1.414-11.592 1.07-.028 1.622-.931.056-.438-5.21.932-.056.378 1.63 9.489-.819-2.319-1.233-7.149-4.869-.621.037-.053 1.718-.931.056-.438-5.21.932-.056.309 1.508 11.592-1.07.097-1.501.932-.056.412 5.305ZM705.135 350.241l-4.874.324-.075-1.243 3.76-.724-.027-4.081-11.751.518-.054 3.245-.932.056-.378-7.334.932-.055.276 2.009 11.561-.569.129-2.003.932-.056.501 9.913ZM704.054 353.516l.192-1.476.906.039-.038 5.083-.906-.04-.188-1.578-4.988-.012-.04 6.61 4.988.012.192-1.476.906.039-.012 4.988-.906-.04-.214-1.483-11.623.043-.192 1.477-.907-.039.013-4.988.906.039.188 1.578 5.394.019.039-6.61-5.393-.019-.217 1.572-.907-.039-.057-5.109.906.04.214 1.483 11.744-.113ZM705.096 372.435l-.034 2.028-13.073 3.933-.211 1.166-.906-.039.202-4.937.907.039.093 1.553 2.853-.764.234-5.437-2.679-1.024-.218 1.572-.906-.039.17-4.436.906.039.1 1.147 12.562 5.199Zm-3.05 1.118 1.629-.378-1.685-.553-5.929-2.2-.247 4.721 6.232-1.59ZM695.46 384.826c-1.71-.458-2.92-.884-3.769-1.519-.424-.317-.753-.609-.867-.945-.208-.362-.202-.767-.195-1.173.058-.596.065-1.001.236-1.261l1.528.002c-.077.285-.109.786-.167 1.381-.051.191-.007.406.132.647.045.216.209.362.469.533 1.342 1.073 4.409 1.792 8.889 2.178l1.502.097.37-2.142.906.039-.944 10.748-.907-.039-.042-1.743-11.533-1.053-.389 1.831-.906-.039.526-5.767.907.039-.009 1.933 11.533 1.053.303-3.789-1.692-.148a52.17 52.17 0 0 1-5.881-.863ZM697.102 400.748c-.192 1.477-.713 2.661-1.608 3.338-.799.703-1.877.923-3.163.782-1.381-.166-2.42-.852-3.071-1.841-.652-.99-.822-2.257-.63-3.734.051-.19.102-.38.058-.595-.044-.216.102-.381.178-.666.179-.665.262-1.356.414-1.926l.377-2.547.881.134-.027 1.622 11.57 1.675.503-1.495.881.134-.805 5.284-.881-.134-.112-1.863-4.309-.645-.256 2.477Zm-7.234-2.651c-.051.19-.153.57-.16.976-.185 1.07.017 1.838.555 2.491s1.247 1.047 2.343 1.137c.976.16 1.838-.017 2.371-.485.628-.443.927-1.178 1.112-2.248l.294-1.857-6.286-.869-.229.855Zm10.939 15.052-.881-.134.053-1.717-11.475-1.649-.459 1.71-.88-.134.735-5.405.881.134-.053 1.718 11.475 1.648.459-1.71.881.134-.736 5.405ZM697.996 421.359l.572-1.374.856.229-1.135 4.993-.855-.23.122-1.596-4.897-1.109-1.421 6.444 4.897 1.108.572-1.374.856.229-1.109 4.897-.855-.229.097-1.502-11.367-2.434-.477 1.4-.855-.229 1.108-4.898.856.229-.097 1.502 5.303 1.116 1.421-6.444-5.303-1.116-.528 1.591-.856-.23 1.135-4.992.855.229-.097 1.502 11.202 2.288ZM694.963 439.9l-.534 1.995-13.577 1.252-.496 1.089-.855-.229 1.178-4.777.856.229-.218 1.571 2.89-.142 1.306-5.252-2.457-1.474-.598 1.47-.855-.229 1.051-4.302.855.229-.116 1.191 11.57 7.379Zm-3.156.376 1.743-.042-1.514-.813-5.339-3.264-1.127 4.587 6.237-.468ZM689.438 454.818l.915-1.894.83.324-1.558 4.676-8.803-.22-2.408-.136 2.102 1.276 7.168 5.18-1.558 4.676-.83-.324.44-2.022-11.513-2.27-.692 1.445-.83-.325 1.685-5.15.83.324-.338 1.641 8.25 1.905 3.567.752-2.311-1.638-8.251-6.081.401-1.115 9.474-.008 3.746.087-3.364-1.512-7.747-3.4-.768 1.729-.83-.324 1.533-4.58.829.324-.312 1.546 10.343 5.114Z" fill="currentColor" /><path d="m683.507 475.433-.725 1.945-13.619-.492-.565.969-.83-.324 1.844-4.599.83.325-.408 1.52 2.909.168 1.971-5.074-2.261-1.828-.787 1.419-.83-.324 1.621-4.149.83.324-.211 1.166 10.231 8.954Zm-3.245-.054 1.692.148-1.368-.978-4.849-3.948-1.698 4.434 6.223.344ZM678.439 484.465l.831-1.203.83.324-1.017 2.274c-.222.45-.324.83-.521 1.184-.273.64-.426 1.21-.674 1.755-.743 1.634-1.524 2.647-2.462 3.109-.913.366-1.94.397-3.22-.15-.899-.444-1.583-.933-2.095-1.682-.513-.748-.715-1.515-.771-2.447-.056-.932.199-1.882.644-2.781.197-.355.273-.64.47-.995.197-.354.248-.545.368-.614l-3.743-1.614-1.207 2.223-.83-.325 2.504-5.542.83.324-.503 1.495 10.566 4.665Zm-7.556.827c-.444.9-.458 1.711-.187 2.599.272.887 1.025 1.496 2.305 2.043.994.47 1.805.484 2.382.231.698-.322 1.187-1.006 1.657-2.001.197-.354.299-.735.426-1.21l.153-.57-6.113-2.656c-.076.285-.324.83-.623 1.564ZM661.972 491.562a6.465 6.465 0 0 1 3.188-.877c1.217.021 2.453.352 3.707.993 1.254.642 2.267 1.422 2.918 2.412.747 1.015 1.063 2.118 1.163 3.265.1 1.147-.111 2.313-.727 3.472-.445.9-1.105 1.843-1.911 2.951l-.343.52-2.932-1.601.495-1.089 2.376.636c.216-.044.482-.278.774-.607.292-.33.514-.779.857-1.298.394-.71.477-1.401.301-2.263-.107-.741-.525-1.464-1.132-2.238-.633-.679-1.481-1.314-2.641-1.93-1.089-.496-2.109-.871-3.085-1.03-.976-.16-1.907-.104-2.725.288-.793.297-1.351.86-1.796 1.76-.273.639-.496 1.089-.502 1.495-.102.38-.084.69.03 1.026l1.336 1.479-.661.943-2.216-1.612.306-1.141c.127-.475.134-.88.261-1.356.102-.38.35-.924.598-1.469.616-1.159 1.371-2.077 2.361-2.729ZM662.344 519.061l-.779-.514.769-1.729-8.107-4.719 1.176 2.454 2.944 8.021.45.222 1.072-1.342.779.514-2.603 4.396-.779-.515.572-1.374-10.045-5.849-.952 1.272-.804-.419 2.629-4.49.804.419-.718 1.539 8.176 4.839-1.226-2.264-2.919-8.115-.614-.369-1.098 1.438-.805-.419 2.655-4.586.804.42-.597 1.469 10.044 5.849.927-1.178.779.515-2.534 4.515ZM655.626 529.688c-.248.545-.375 1.02-.572 1.375-.197.354-.394.709-.565.969-.857 1.298-1.708 2.19-2.621 2.557-.913.366-1.819.327-2.693-.213-.874-.539-1.291-1.262-1.468-2.124-.176-.863-.067-1.648.282-2.573-.66.943-1.434 1.551-2.296 1.727-.862.177-1.648.068-2.427-.446-1.133-.711-1.81-1.606-1.91-2.753-.126-1.052.231-2.383 1.259-3.941.368-.614.806-1.108 1.244-1.602.413-.398.8-.702 1.066-.936.267-.234.412-.399.508-.374l2.52 2-.515.779-2.299-.922c-.603.348-1.161.911-1.821 1.855-.489.684-.572 1.374-.44 2.021.132.647.696 1.205 1.57 1.745.614.368 1.279.546 2.021.439.741-.106 1.395-.644 1.935-1.518l.711-1.134.874.54-.54.874c-.317.424-.445.899-.572 1.374-.032.501.03 1.027.214 1.484.183.456.582.869 1.101 1.211.684.489 1.374.572 1.926.415.552-.158 1.085-.626 1.573-1.31.318-.425.54-.874.547-1.28.102-.38.083-.691-.056-.932l-1.291-1.262.66-.944 2.483 1.378c-.058.596-.255.951-.408 1.521ZM645.838 542.649l1.117-1.126.779.514-1.467 2.052c-.291.329-.514.778-.882 1.393-.343.519-.54.874-.711 1.133-.978 1.368-1.923 2.235-2.811 2.507-.887.271-1.768.137-2.522-.472-.684-.489-1.221-1.143-1.398-2.005-.202-.767-.093-1.553.231-2.382-.66.943-1.434 1.551-2.322 1.822-.862.177-1.743.042-2.496-.567-1.013-.781-1.57-1.745-1.67-2.892-.1-1.147.403-2.642 1.647-4.244.292-.329.489-.684.781-1.013.609-.754.952-1.273 1.072-1.342l1.467-2.052.779.514-.762 1.324 9.168 6.836Zm-11.916-3.804c-.781 1.013-1.036 1.964-1.024 2.68.012.716.524 1.464 1.303 1.979.754.609 1.514.813 2.161.68.646-.132 1.3-.67 1.934-1.518.781-1.013 1.175-1.723 1.346-1.982l-4.527-3.251c-.121.07-.558.564-1.193 1.412Zm6.055 3.252-.635.849c-.489.684-.667 1.349-.535 1.996.132.646.575 1.274 1.259 1.763.684.489 1.349.667 1.97.63.552-.158 1.18-.601 1.84-1.544.292-.33.514-.779.711-1.134l.197-.355-4.173-3.053c-.051.19-.317.424-.634.848ZM637.063 556.391l-1.244 1.602-12.955-4.49-.825.798-.753-.609 3.072-3.863.753.61-.857 1.298 2.68 1.023 3.389-4.286-1.607-2.366-1.117 1.127-.753-.61 2.755-3.438.753.61-.591 1.064 7.3 11.53Zm-3.085-1.03 1.565.623-1.051-1.402-3.492-5.214-2.926 3.698 5.904 2.295ZM619.71 556.529a6.206 6.206 0 0 1 3.366-.015c1.14.306 2.274 1.017 3.356 1.918 1.083.901 1.83 1.916 2.24 3.045a6.504 6.504 0 0 1 .3 3.442c-.21 1.165-.801 2.229-1.556 3.147-.609.754-1.529 1.526-2.57 2.368l-.507.373-2.418-2.379.85-.893 2.128 1.181c.216-.044.552-.158.939-.461.361-.209.774-.608 1.116-1.127a3.008 3.008 0 0 0 .871-2.109c.109-.786-.093-1.553-.58-2.397-.487-.843-1.069-1.712-2.082-2.493-.918-.755-1.767-1.39-2.692-1.74-.924-.349-1.805-.483-2.642-.402-.837.081-1.559.499-2.169 1.252-.438.494-.755.918-.857 1.298-.197.355-.178.666-.255.951l.854 1.756-.92.772-1.683-2.08c.146-.165.343-.52.59-1.064.223-.45.42-.805.617-1.159.196-.355.514-.779.952-1.273.634-.849 1.649-1.595 2.752-1.911ZM615.795 576.463c.316 1.103.346 2.13.092 3.08-.255.95-.7 1.85-1.499 2.552-.85.893-1.814 1.449-2.797 1.695-.982.246-2.079.156-3.099-.219s-2.058-1.061-3.046-1.936c-1.057-.997-1.873-2.132-2.258-3.356-.411-1.128-.606-2.301-.326-3.346.185-1.071.75-2.04 1.48-2.863a6.863 6.863 0 0 1 2.823-1.79c.982-.246 2.079-.156 3.099.219 1.019.375 2.058 1.061 3.046 1.936l2.113-2.183-3.97-3.814-1.281.981-.633-.679 3.547-3.735.659.584-.952 1.272 8.337 8.04 1.16-.911.633.679-3.521 3.64-.633-.679.952-1.273-3.64-3.522-2.113 2.184c.981 1.282 1.512 2.341 1.827 3.444Zm-1.174 1.722c-.29-1.198-1.151-2.549-2.606-3.958-1.292-1.262-2.615-2.024-3.876-2.26-1.261-.236-2.364.079-3.215.972-.85.892-1.105 1.843-.815 3.041.291 1.198 1.151 2.549 2.702 3.983 1.291 1.263 2.52 1.999 3.755 2.33 1.236.332 2.244-.01 3.094-.902.85-.893 1.131-1.938.961-3.206ZM597.524 587.253c-.786-.109-1.831-.389-3.067-.72l-1.995-.535c-.381-.102-.691-.083-.932.056l-.698.322-.633-.678 1.65-1.596c.241-.139.577-.252 1.242-.074l2.566.687c1.21.426 2.161.681 2.946.79.666.178 1.192.115 1.484-.214l.824-.797-3.633-3.928-1.376.955-.633-.678 3.781-3.469.633.679-1.022 1.152 7.9 8.534 1.256-.886.632.679-3.66 3.399-.633-.679.952-1.273-3.633-3.927-1.212 1.101.892 6.554 1.256-.885.633.678-3.395 3.165-.632-.679.926-1.177-.746-6.719c-.171.26-.887.271-1.673.163ZM588.244 588.433a4.91 4.91 0 0 1 3.092.625c1.09.495 1.982 1.346 2.919 2.412.937 1.065 1.537 2.245 1.827 3.443.29 1.198.295 2.32-.08 3.34s-.94 1.989-1.86 2.761c-1.453 1.24-3.012 1.739-4.584 1.522-1.571-.218-3.034-1.221-4.534-2.845-.937-1.066-1.538-2.245-1.828-3.443-.29-1.199-.295-2.32.106-3.435.305-1.141.94-1.989 1.86-2.761.996-1.058 2.03-1.494 3.082-1.619Zm6.562 8.583c-.17-1.268-.909-2.689-2.245-4.167-1.24-1.453-2.443-2.284-3.653-2.71-1.21-.426-2.288-.206-3.208.566-.92.772-1.295 1.792-1.125 3.06.169 1.268.909 2.688 2.219 4.261 1.24 1.453 2.444 2.285 3.654 2.711 1.235.331 2.313.11 3.233-.662.919-.772 1.295-1.792 1.125-3.059ZM586.113 605.891l1.325-.766.608.774-1.935 1.519c-.362.209-.774.607-1.212 1.101-.412.399-.799.703-1.04.842-1.402 1.05-2.461 1.581-3.393 1.637-.932.056-1.736-.363-2.343-1.137-.538-.653-.835-1.446-.822-2.257.014-.811.313-1.546.897-2.205-.92.772-1.833 1.139-2.739 1.1-.907-.039-1.711-.458-2.319-1.232-.746-1.015-1.062-2.118-.851-3.284.21-1.166 1.162-2.439 2.71-3.654.387-.304.749-.512 1.015-.747.774-.607 1.256-.885 1.402-1.05l1.935-1.519.512.749-1.116 1.127 7.366 9.002Zm-10.386-6.858c-1.015.747-1.529 1.526-1.638 2.312-.108.785.094 1.553.701 2.327.608.773 1.222 1.142 1.913 1.225.69.083 1.388-.239 2.282-.916 1.015-.747 1.669-1.285 1.84-1.544l-3.411-4.377c-.38-.102-.887.271-1.687.973Zm4.932 4.785-.774.607c-.654.538-1.022 1.153-1.105 1.843-.084.691.144 1.363.777 2.042.538.653 1.152 1.022 1.748 1.079.595.058 1.293-.264 2.187-.941.387-.304.679-.633 1.066-.937l.267-.234-3.177-4.111c-.336.114-.603.348-.989.652Z" fill="currentColor" /><circle cx="171.452" cy="137.905" r="2" fill="currentColor" style="mix-blend-mode:overlay" /><circle cx="575.951" cy="112.275" r="2" fill="currentColor" style="mix-blend-mode:overlay" /></g>
    </symbol>
</svg>